<svg xmlns="http://www.w3.org/2000/svg" width="27" height="27" viewBox="0 0 27 27">
  <g id="check" transform="translate(-0.078 -0.078)">
    <g id="Grupo_18897" data-name="Grupo 18897" transform="translate(0.078 0.078)">
      <circle id="Elipse_197" data-name="Elipse 197" cx="13.5" cy="13.5" r="13.5" fill="#31af91"/>
    </g>
    <g id="Grupo_18898" data-name="Grupo 18898" transform="translate(5.052 8.266)">
      <path id="Trazado_8819" data-name="Trazado 8819" d="M30.842,51.858,24.564,45.58a.206.206,0,0,1,0-.3l1.809-1.809a.206.206,0,0,1,.3,0l4.32,4.32,8.129-8.129a.206.206,0,0,1,.3,0l1.809,1.809a.206.206,0,0,1,0,.3L31.14,51.858A.206.206,0,0,1,30.842,51.858Z" transform="translate(-24.5 -39.6)" fill="#fff"/>
    </g>
  </g>
</svg>
