<svg id="Grupo_18924" data-name="Grupo 18924" xmlns="http://www.w3.org/2000/svg" width="164.569" height="55.004" viewBox="0 0 164.569 55.004">
  <path id="Trazado_8825" data-name="Trazado 8825" d="M10.86,1014.314a.492.492,0,0,1-.492.486H.89a4.732,4.732,0,0,0,4.478,4.478,4.434,4.434,0,0,0,3.9-2,.476.476,0,0,1,.6-.193.456.456,0,0,1,.268.342.479.479,0,0,1-.062.33,5.345,5.345,0,0,1-4.714,2.478,5.922,5.922,0,0,1,0-11.807,5.732,5.732,0,0,1,5.5,5.885m-1.015-.461a4.708,4.708,0,0,0-4.478-4.478,4.731,4.731,0,0,0-4.478,4.478Zm12.517-5.194a.481.481,0,0,1,.473.473.462.462,0,0,1-.473.473H19.822v9.97a.473.473,0,1,1-.947,0v-9.97H16.434a.462.462,0,0,1-.473-.473.485.485,0,0,1,.473-.473h2.441v-3.649a.477.477,0,0,1,.38-.479.47.47,0,0,1,.567.467v3.662Zm15.5,4.82v6.041a.481.481,0,0,1-.473.473.462.462,0,0,1-.473-.473v-6.041c0-2.036-1.152-4.073-3.425-4.073-2.914,0-4.172,2.547-4,5.156,0,.069.031.374.031.4v4.534a.477.477,0,0,1-.38.48.47.47,0,0,1-.567-.467V999.673a.473.473,0,0,1,.947,0V1010.9a4.57,4.57,0,0,1,3.967-2.441c2.784,0,4.378,2.441,4.378,5.019m16.995.834a.492.492,0,0,1-.492.486H44.881a4.732,4.732,0,0,0,4.478,4.478,4.434,4.434,0,0,0,3.9-2,.476.476,0,0,1,.6-.193.456.456,0,0,1,.268.342.479.479,0,0,1-.062.33,5.345,5.345,0,0,1-4.714,2.478,5.918,5.918,0,1,1,5.505-5.922m-1.021-.461a4.478,4.478,0,1,0-8.955,0Zm12.654-4.752a.469.469,0,0,1-.442.511c-2.784.4-4.035,2.678-4.035,5.324v4.534a.477.477,0,0,1-.38.479.47.47,0,0,1-.567-.467v-10.331a.477.477,0,0,1,.38-.48.47.47,0,0,1,.567.467v2.1a5.051,5.051,0,0,1,3.967-2.578.483.483,0,0,1,.511.436m15.569,5.212a.492.492,0,0,1-.492.486H72.089a4.732,4.732,0,0,0,4.478,4.478,4.434,4.434,0,0,0,3.9-2,.476.476,0,0,1,.6-.193.456.456,0,0,1,.268.342.479.479,0,0,1-.062.33,5.345,5.345,0,0,1-4.714,2.478,5.919,5.919,0,1,1,5.5-5.922m-1.015-.461a4.478,4.478,0,1,0-8.955,0Zm16.316-4.633v10.356a.481.481,0,0,1-.473.473.462.462,0,0,1-.473-.473v-1.968a4.438,4.438,0,0,1-3.936,2.678c-2.815,0-4.378-2.441-4.378-5.019V1009.2a.473.473,0,1,1,.947,0v6.072c0,2.036,1.152,4.073,3.425,4.073,3.188,0,3.936-2.983,3.936-6.277V1009.2a.479.479,0,0,1,.61-.455.509.509,0,0,1,.343.48m23.976,4.222v6.072a.481.481,0,0,1-.473.473.462.462,0,0,1-.473-.473v-6.072c0-2.036-1.152-4.035-3.425-4.035-2.852,0-3.936,3.051-3.936,5.424v4.683a.481.481,0,0,1-.473.473.462.462,0,0,1-.473-.473v-6.072c0-2.036-1.152-4.035-3.425-4.035-2.883,0-4.073,2.273-3.967,5.293,0,.068.031.206,0,.237v4.565a.477.477,0,0,1-.386.48.47.47,0,0,1-.567-.467v-10.362a.477.477,0,0,1,.38-.48.47.47,0,0,1,.567.467v1.731a4.54,4.54,0,0,1,3.967-2.41,4.213,4.213,0,0,1,4.035,3.02,4.691,4.691,0,0,1,4.272-3.02c2.784,0,4.378,2.4,4.378,4.982" transform="translate(43.232 -982.615)" fill="#fff"/>
  <g id="Grupo_18937" data-name="Grupo 18937" transform="translate(0 0)">
    <path id="Trazado_8844" data-name="Trazado 8844" d="M20.623,5V25.333l17.185,7.679Z" transform="translate(-3.435 -5)" fill="rgba(255,255,255,0.6)"/>
    <path id="Trazado_8845" data-name="Trazado 8845" d="M28.438,5,11.25,33.013l17.188-7.679Z" transform="translate(-11.25 -5)" fill="#fff"/>
    <path id="Trazado_8846" data-name="Trazado 8846" d="M20.623,32V45.813l17.2-23.792Z" transform="translate(-3.435 9.192)" fill="rgba(255,255,255,0.6)"/>
    <path id="Trazado_8847" data-name="Trazado 8847" d="M28.438,45.813V31.995L11.25,22.021Z" transform="translate(-11.25 9.192)" fill="#fff"/>
    <path id="Trazado_8848" data-name="Trazado 8848" d="M20.623,33.744l17.185-9.978L20.623,16.09Z" transform="translate(-3.435 4.247)" fill="rgba(255,255,255,0.2)"/>
    <path id="Trazado_8849" data-name="Trazado 8849" d="M11.25,23.765l17.188,9.978V16.09Z" transform="translate(-11.25 4.247)" fill="rgba(255,255,255,0.6)"/>
  </g>
</svg>
