<svg xmlns="http://www.w3.org/2000/svg" width="169.696" height="38.839" viewBox="0 0 169.696 38.839">
  <g id="Polygon_MATIC_" data-name="Polygon (MATIC)" transform="translate(0)">
    <g id="Grupo_18936" data-name="Grupo 18936" transform="translate(52.582 0)">
      <path id="Trazado_8836" data-name="Trazado 8836" d="M21.744,7.6l2.39,2.39c.8.8.8,2.39.8,3.983s0,3.187-.8,3.983c0,2.39-1.593,3.187-2.39,3.983-1.593,0-2.39.8-3.983.8a2.927,2.927,0,0,1-2.39-.8c-.8,0-1.593-.8-2.39-.8v7.967H8.2V7.6h3.983l.8,1.593A7.233,7.233,0,0,1,18.557,6.8C19.354,6.8,20.947,6.8,21.744,7.6Zm-2.39,10.357a4.139,4.139,0,0,0,1.593-3.187,4.139,4.139,0,0,0-1.593-3.187,2.927,2.927,0,0,0-2.39-.8,2.927,2.927,0,0,0-2.39.8c-.8,0-.8.8-1.593,1.593V16.36a1.714,1.714,0,0,0,1.593,1.593c0,.8.8.8,1.593.8C17.76,18.75,18.557,18.75,19.354,17.954Z" transform="translate(-8.2 4.354)" fill="#8247e5"/>
      <path id="Trazado_8837" data-name="Trazado 8837" d="M11.4,10.087c.8-.8,1.593-2.39,3.187-2.39a7.182,7.182,0,0,1,3.983-.8c1.593,0,3.187,0,3.983.8s2.39,1.593,3.187,3.187c.8.8.8,2.39.8,3.983a7.182,7.182,0,0,1-.8,3.983c-.8.8-1.593,2.39-3.187,2.39-.8.8-2.39.8-3.983.8s-3.187,0-3.983-.8-2.39-1.593-3.187-2.39-.8-2.39-.8-3.983C10.6,12.477,10.6,10.883,11.4,10.087Zm4.78,7.17a2.927,2.927,0,0,0,2.39.8c.8,0,1.593-.8,2.39-.8s.8-1.593.8-3.187,0-2.39-.8-3.187a2.927,2.927,0,0,0-2.39-.8c-.8,0-1.593.8-2.39.8-.8.8-.8,1.593-.8,3.187C15.38,14.867,15.38,16.46,16.177,17.257Z" transform="translate(8.521 5.05)" fill="#8247e5"/>
      <path id="Trazado_8838" data-name="Trazado 8838" d="M17.78,5.4V31.691H13V5.4Z" transform="translate(25.241 -5.4)" fill="#8247e5"/>
      <path id="Trazado_8839" data-name="Trazado 8839" d="M31.327,6.9l-9.56,21.511h-4.78l3.187-7.967L13.8,6.9h5.577l3.983,8.764L27.344,6.9Z" transform="translate(30.815 5.05)" fill="#8247e5"/>
      <path id="Trazado_8840" data-name="Trazado 8840" d="M33.527,7.6V21.937a7.182,7.182,0,0,1-.8,3.983c-.8,1.593-1.593,1.593-3.187,2.39a10.1,10.1,0,0,1-4.78.8c-.8,0-2.39,0-3.187-.8-.8,0-1.593-.8-2.39-.8s-1.593-.8-2.39-1.593l2.39-3.187c1.593,1.593,2.39,1.593,3.187,2.39a2.927,2.927,0,0,0,2.39.8c.8,0,2.39,0,3.187-.8a2.927,2.927,0,0,0,.8-2.39v-2.39c-.8.8-.8,1.593-2.39,1.593-.8.8-2.39.8-3.187.8a8.662,8.662,0,0,1-3.983-.8l-2.39-2.39a11.841,11.841,0,0,1-.8-4.78,7.182,7.182,0,0,1,.8-3.983A6.22,6.22,0,0,1,19.983,7.6c.8-.8,2.39-.8,3.187-.8s2.39,0,3.187.8c.8,0,1.593.8,2.39,1.593l.8-.8h3.983Zm-4.78,8.764V13.174a1.714,1.714,0,0,0-1.593-1.593c-.8,0-1.593-.8-2.39-.8s-2.39.8-3.187.8c-.8.8-.8,1.593-.8,3.187,0,.8,0,2.39.8,3.187a4.139,4.139,0,0,0,3.187,1.593C26.357,18.75,27.95,17.954,28.747,16.36Z" transform="translate(46.142 4.354)" fill="#8247e5"/>
      <path id="Trazado_8841" data-name="Trazado 8841" d="M20.093,10.783A11,11,0,0,1,22.483,7.6a7.182,7.182,0,0,1,3.983-.8c1.593,0,3.187,0,3.983.8s2.39,1.593,3.187,2.39a7.182,7.182,0,0,1,.8,3.983c0,1.593,0,3.187-.8,3.983a6.22,6.22,0,0,1-3.187,3.187c-.8.8-2.39.8-3.983.8s-3.187,0-3.983-.8A11,11,0,0,1,19.3,18.75a7.182,7.182,0,0,1-.8-3.983A6.085,6.085,0,0,1,20.093,10.783Zm3.983,7.17a2.927,2.927,0,0,0,2.39.8c.8,0,1.593-.8,2.39-.8s1.593-2.39,1.593-3.187c0-1.593,0-2.39-.8-3.187a2.927,2.927,0,0,0-2.39-.8c-.8,0-1.593.8-2.39.8-.8.8-.8,1.593-.8,3.187C23.28,15.564,24.077,17.157,24.077,17.954Z" transform="translate(63.56 4.354)" fill="#8247e5"/>
      <path id="Trazado_8842" data-name="Trazado 8842" d="M34.544,8.393a4.139,4.139,0,0,1,1.593,3.187V22.734h-4.78v-9.56a2.113,2.113,0,0,0-2.39-2.39c-.8,0-1.593.8-2.39,1.593a6.086,6.086,0,0,0-1.593,3.983v5.577H21V7.6h3.983v2.39l2.39-2.39c.8-.8,2.39-.8,3.187-.8C32.154,6.8,32.95,7.6,34.544,8.393Z" transform="translate(80.977 4.354)" fill="#8247e5"/>
    </g>
    <path id="Trazado_8843" data-name="Trazado 8843" d="M34.265,17.176a1.494,1.494,0,0,0-2.39,0L25.5,20.363l-3.983,2.39-6.374,3.983a1.494,1.494,0,0,1-2.39,0L7.177,23.55c-.8,0-.8-.8-.8-2.39V15.583c0-.8.8-1.593,1.593-2.39l4.78-2.39a1.494,1.494,0,0,1,2.39,0l4.78,2.39c.8.8,1.593,1.593,1.593,2.39v3.983l3.983-2.39V13.193c0-.8-.8-1.593-1.593-2.39l-8.764-4.78a1.494,1.494,0,0,0-2.39,0L3.193,10.8C2.4,11.6,1.6,12.4,1.6,13.193V23.55c0,1.593.8,2.39,1.593,2.39l9.56,5.577a1.494,1.494,0,0,0,2.39,0l6.374-3.187L25.5,25.94l6.374-3.187a1.494,1.494,0,0,1,2.39,0l4.78,2.39a1.714,1.714,0,0,1,1.593,1.593v5.577c0,.8-.8,1.593-1.593,2.39l-4.78,3.187a1.494,1.494,0,0,1-2.39,0L27.094,34.7A1.714,1.714,0,0,1,25.5,33.11V29.127l-3.983,2.39V35.5c0,.8.8,1.593,1.593,2.39l9.56,5.577a1.494,1.494,0,0,0,2.39,0l9.56-5.577c0-.8.8-1.593.8-2.39V24.347c0-.8-.8-1.593-1.593-2.39Z" transform="translate(-1.6 -5.226)" fill="#8247e5"/>
  </g>
</svg>
