<svg id="Binance_Smart_Chain" data-name="Binance Smart Chain" xmlns="http://www.w3.org/2000/svg" width="198.008" height="53.708" viewBox="0 0 198.008 53.708">
  <path id="Shape" d="M385.4,324.45h9.109a7.06,7.06,0,0,1,5.1,1.692,4.4,4.4,0,0,1,1.543,3.385h0A5.418,5.418,0,0,1,401,331.07a6.328,6.328,0,0,1-1.394,2.165,3.34,3.34,0,0,1-.921.622,6.443,6.443,0,0,1,2.787,1.692,4.571,4.571,0,0,1,.921,3.086h0a5.425,5.425,0,0,1-.473,2.315,4.968,4.968,0,0,1-1.543,1.692,13.731,13.731,0,0,1-2.315,1.07,10.331,10.331,0,0,1-3.086.3h-9.432V324.4H385.4Zm8.337,8.014a5.926,5.926,0,0,0,2.315-.473,1.668,1.668,0,0,0,.921-1.543h0a1.852,1.852,0,0,0-.772-1.543,2.679,2.679,0,0,0-2.165-.473h-4.33v4.156h4.007v-.124Zm1.07,7.889a5.925,5.925,0,0,0,2.315-.473,1.45,1.45,0,0,0,.772-1.692h0a1.852,1.852,0,0,0-.772-1.543,4.914,4.914,0,0,0-2.464-.622h-5.1v4.331Z" transform="translate(-330.149 -317.979)" fill="#f3ba2f"/>
  <path id="Path" d="M475.3,324.6h4.331v19.761H475.3Z" transform="translate(-397.675 -318.129)" fill="#f3ba2f"/>
  <path id="Path_1_" d="M519.4,324.6h4.007l9.258,12.2V324.6h4.306v19.761h-3.683l-9.731-12.519v12.519H519.4Z" transform="translate(-430.799 -318.129)" fill="#f3ba2f"/>
  <path id="Shape_1_" d="M617.187,324h4.007l8.487,19.91H625.2l-1.842-4.48h-8.337l-1.842,4.48H608.7Zm4.629,11.722-2.613-6.471-2.613,6.471Z" transform="translate(-497.874 -317.678)" fill="#f3ba2f"/>
  <path id="Path_2_" d="M711.6,324.6h4.007l9.258,12.2V324.6h4.33v19.761h-3.708l-9.582-12.519v12.519H711.6Z" transform="translate(-575.165 -318.129)" fill="#f3ba2f"/>
  <path id="Path_3_" d="M814.779,343.758a11.252,11.252,0,0,1-4.007-.772,10.235,10.235,0,0,1-5.4-5.4,11.359,11.359,0,0,1-.772-4.007h0a10.735,10.735,0,0,1,2.937-7.242,9.485,9.485,0,0,1,3.235-2.165,9.919,9.919,0,0,1,4.156-.772,13.652,13.652,0,0,1,2.464.149,7.08,7.08,0,0,1,2.016.622,14.821,14.821,0,0,1,1.692.921,9.67,9.67,0,0,1,1.543,1.244l-2.613,3.235a19.506,19.506,0,0,0-2.315-1.692,5.2,5.2,0,0,0-2.613-.622,5.926,5.926,0,0,0-2.315.473,4.007,4.007,0,0,0-1.842,1.394,10.178,10.178,0,0,0-1.244,2.016,6.409,6.409,0,0,0-.473,2.315h0a6.659,6.659,0,0,0,.473,2.464,5.687,5.687,0,0,0,1.244,2.016,5.431,5.431,0,0,0,4.156,1.842,6.576,6.576,0,0,0,2.937-.622,13.166,13.166,0,0,0,2.315-1.692l2.763,2.763-1.543,1.543a10.957,10.957,0,0,1-1.842,1.07,9.261,9.261,0,0,1-2.165.772,19.575,19.575,0,0,1-2.787.149Z" transform="translate(-645.019 -317.228)" fill="#f3ba2f"/>
  <path id="Path_4_" d="M898.9,324.6h14.808v3.858H903.056v4.007h9.408v3.858h-9.408V340.5h10.8v3.858H898.9Z" transform="translate(-715.85 -318.129)" fill="#f3ba2f"/>
  <path id="Path_5_" d="M389.974,439.211a6.792,6.792,0,0,1-3.086-.622A9.1,9.1,0,0,1,384.1,436.9l1.543-1.692a9.675,9.675,0,0,0,2.016,1.394,6.41,6.41,0,0,0,2.315.473,3.83,3.83,0,0,0,1.842-.473,1.381,1.381,0,0,0,.622-1.244h0a.966.966,0,0,0-.149-.622c-.149-.149-.3-.473-.473-.622-.3-.149-.622-.3-.921-.473-.473-.149-1.07-.3-1.543-.473a8.944,8.944,0,0,1-2.016-.622,4.2,4.2,0,0,1-1.394-.772,6.812,6.812,0,0,1-.921-1.07,3.746,3.746,0,0,1-.3-1.692h0a6.72,6.72,0,0,1,.3-1.692,3.861,3.861,0,0,1,.921-1.244,4.985,4.985,0,0,1,1.543-.772,8.115,8.115,0,0,1,1.842-.3,8.519,8.519,0,0,1,2.787.473,15.021,15.021,0,0,1,2.315,1.244l-1.244,1.842a10.957,10.957,0,0,0-1.842-1.07,4.041,4.041,0,0,0-1.842-.3,2.935,2.935,0,0,0-1.692.473,1.935,1.935,0,0,0-.622,1.244h0a1.43,1.43,0,0,0,.149.772c.149.149.3.473.473.622.3.149.622.3,1.07.473.473.149.921.3,1.692.473a12.084,12.084,0,0,1,2.016.622,6.491,6.491,0,0,1,1.394.772,4.8,4.8,0,0,1,.772,1.07,4.724,4.724,0,0,1,.3,1.543h0a5.563,5.563,0,0,1-.3,1.692,8.7,8.7,0,0,1-1.07,1.394,4.986,4.986,0,0,1-1.543.772C391.367,439.062,390.6,439.211,389.974,439.211Z" transform="translate(-329.173 -393.542)" fill="#f3ba2f"/>
  <path id="Path_6_" d="M438.7,425.7h2.638l4.156,6.471,4.33-6.471h2.613v13.887h-2.464v-10.03l-4.33,6.471h-.149l-4.306-6.471v10.03H438.7Z" transform="translate(-370.184 -394.068)" fill="#f3ba2f"/>
  <path id="Shape_2_" d="M509.3,425.1h2.315l6.023,13.887h-2.613l-1.394-3.385h-6.471l-1.394,3.385H503.3Zm3.559,8.487-2.464-5.55-2.315,5.55Z" transform="translate(-418.706 -393.617)" fill="#f3ba2f"/>
  <path id="Shape_3_" d="M570.349,425.7h6.172a12.283,12.283,0,0,1,2.315.3,3.932,3.932,0,0,1,1.692,1.07,5.172,5.172,0,0,1,.921,1.394,5.706,5.706,0,0,1,.3,1.692h0a5.642,5.642,0,0,1-.3,1.543c-.149.473-.473.772-.622,1.244a6.821,6.821,0,0,1-1.07.921,5.713,5.713,0,0,1-1.394.622l3.708,5.251h-2.937l-3.385-4.778h-3.086v4.778H570.2Zm6.023,6.794a2.842,2.842,0,0,0,2.016-.622,2.434,2.434,0,0,0,.772-1.692h0a2.388,2.388,0,0,0-.772-1.692,3.506,3.506,0,0,0-2.165-.622h-3.559v4.629Z" transform="translate(-468.956 -394.068)" fill="#f3ba2f"/>
  <path id="Path_7_" d="M628.58,427.865H624.1V425.7h11.274v2.165h-4.48v11.722H628.43Z" transform="translate(-509.442 -394.068)" fill="#f3ba2f"/>
  <path id="Path_8_" d="M708.455,438.685a6.04,6.04,0,0,1-2.787-.622,6.775,6.775,0,0,1-3.708-3.708,6.059,6.059,0,0,1-.473-2.787h0a8.52,8.52,0,0,1,.473-2.787,7.034,7.034,0,0,1,3.708-3.858,9.205,9.205,0,0,1,2.937-.622,5.865,5.865,0,0,1,1.692.149c.473.149.921.3,1.394.473.473.149.771.473,1.244.622.3.3.772.622,1.07.921l-1.543,1.842a7.085,7.085,0,0,0-1.692-1.244,5.116,5.116,0,0,0-2.165-.473,7.694,7.694,0,0,0-1.842.3,5.694,5.694,0,0,0-1.543,1.07,3.1,3.1,0,0,0-.921,1.543,8.113,8.113,0,0,0-.3,1.842h0a7.692,7.692,0,0,0,.3,1.842,3.42,3.42,0,0,0,.921,1.543,5.193,5.193,0,0,0,1.543,1.07,2.59,2.59,0,0,0,1.842.3,4.768,4.768,0,0,0,2.165-.473,6.542,6.542,0,0,0,1.842-1.394l1.543,1.543-1.07,1.07a5.648,5.648,0,0,1-1.244.772,4.68,4.68,0,0,1-1.543.473,2.321,2.321,0,0,1-1.842.6Z" transform="translate(-567.54 -393.016)" fill="#f3ba2f"/>
  <path id="Path_9_" d="M762.4,425.7h2.315v5.7h6.645v-5.7h2.464v13.887H771.36v-5.874h-6.645v5.874H762.4Z" transform="translate(-613.322 -394.068)" fill="#f3ba2f"/>
  <path id="Shape_4_" d="M824.3,425.1h2.315l6.023,13.887h-2.613l-1.394-3.385h-6.471l-1.394,3.385H818.3Zm3.41,8.487-2.315-5.55-2.315,5.55Z" transform="translate(-655.31 -393.617)" fill="#f3ba2f"/>
  <path id="Path_10_" d="M885.8,425.7h2.489v13.887H885.8Z" transform="translate(-706.01 -394.068)" fill="#f3ba2f"/>
  <path id="Path_11_" d="M910.6,425.7h2.165l7.417,9.557V425.7h2.464v13.887H920.63l-7.541-9.88v9.88H910.6Z" transform="translate(-724.638 -394.068)" fill="#f3ba2f"/>
  <path id="binancedex" d="M191.5,343.2v6.023l-5.251,3.086-5.1-3.086V343.2l5.1,3.086Zm-28.1-20.831,5.1,3.086v10.328l8.785,5.251v6.023L163.4,338.868Zm45.694,0v16.526l-14.037,8.188v-6.023l8.785-5.251V325.479Zm-14.062-8.188,5.251,3.086h0v6.023L191.5,328.54v10.478l-5.1,3.086-5.077-3.086v-10.5l-9.109-5.251v-6.023l5.251-3.086,8.785,5.251ZM172.21,327.594l5.1,3.086V336.7l-5.1-3.086Zm28.073,0v6.023l-5.1,3.086V330.68ZM168.5,308.928l5.251,3.086L168.5,315.1v6.023l-5.1-3.086v-6.023Zm35.49,0,5.251,3.086v6.023l-5.251,3.086V315.1l-5.1-3.086Zm-17.745,0,5.251,3.086-5.251,3.086-5.1-3.086Zm0-10.328,14.037,8.188-5.1,3.086-8.785-5.251-8.96,5.251-5.1-3.086Z" transform="translate(-163.4 -298.6)" fill="#f3ba2f"/>
</svg>
