<svg xmlns="http://www.w3.org/2000/svg" xmlns:xlink="http://www.w3.org/1999/xlink" width="293.693" height="54.86" viewBox="0 0 293.693 54.86">
  <defs>
    <linearGradient id="linear-gradient" x1="0.907" y1="1.494" x2="0.355" y2="-3.935" gradientUnits="objectBoundingBox">
      <stop offset="0" stop-color="#00ffa3"/>
      <stop offset="1" stop-color="#dc1fff"/>
    </linearGradient>
    <linearGradient id="linear-gradient-2" x1="0.666" y1="5.161" x2="0.113" y2="-0.267" xlink:href="#linear-gradient"/>
    <linearGradient id="linear-gradient-3" x1="0.786" y1="3.34" x2="0.233" y2="-2.089" xlink:href="#linear-gradient"/>
  </defs>
  <g id="Solana_SOL_" data-name="Solana (SOL)" transform="translate(0)">
    <path id="Trazado_8850" data-name="Trazado 8850" d="M1022.225,796.927h11.069a2.831,2.831,0,0,1,0,5.662h-13.349a.839.839,0,0,0-.563.215l-4.025,3.475a.877.877,0,0,0,.563,1.543h16.7a.013.013,0,0,0,.013-.013.013.013,0,0,1,.014-.013c.215.013.416.027.644.027a8.065,8.065,0,0,0,.657-16.1.013.013,0,0,1-.013-.013c0-.013,0-.013-.013-.013H1022.01a2.831,2.831,0,0,1,0-5.662h13.323a.88.88,0,0,0,.59-.228l3.743-3.475a.882.882,0,0,0-.59-1.53h-17.052a8.063,8.063,0,0,0,0,16.127Z" transform="translate(-922.749 -766.874)" fill="#fff"/>
    <path id="Trazado_8851" data-name="Trazado 8851" d="M1549.972,780.7a.873.873,0,0,0-.872.885v25.277a.882.882,0,0,0,.872.885h20.259a.917.917,0,0,0,.644-.282l2.536-2.724a.875.875,0,0,0-.644-1.476h-17.683a.873.873,0,0,1-.872-.885v-20.8a.882.882,0,0,0-.872-.885Z" transform="translate(-1386.057 -766.787)" fill="#fff"/>
    <path id="Trazado_8852" data-name="Trazado 8852" d="M1282.89,780.7h0c0,.013-.013.013,0,0a5.035,5.035,0,0,0-4.79,4.79h0v17h0v.215a5,5,0,0,0,4.79,5h18.381a5.026,5.026,0,0,0,4.79-5v-.215h0V785.5h0a5,5,0,0,0-4.776-4.79H1282.89Zm3.421,4.8h0a3.139,3.139,0,0,0-2.992,3.019h0v10.693h0v.134a3.145,3.145,0,0,0,2.992,3.153h11.525a3.145,3.145,0,0,0,2.992-3.153v-.134h0V788.522h0a3.148,3.148,0,0,0-2.992-3.019h-11.525Z" transform="translate(-1151.416 -766.787)" fill="#fff" fill-rule="evenodd"/>
    <path id="Trazado_8853" data-name="Trazado 8853" d="M1805.465,807.035a.882.882,0,0,0,.872.885h3.435a.873.873,0,0,0,.872-.885V786.119h0V785.9a4.98,4.98,0,0,0-4.736-5h-17.857a4.979,4.979,0,0,0-4.951,5.018v.215h0v20.916a.882.882,0,0,0,.872.885h3.435a.873.873,0,0,0,.872-.885v-8.707a.882.882,0,0,1,.872-.885h15.483a.873.873,0,0,1,.872.885v8.694Zm-17.227-14.4v-4.347a3.041,3.041,0,0,1,3.019-3.059h11.189a3.041,3.041,0,0,1,3.019,3.059v4.347a.882.882,0,0,1-.872.885h-15.483A.873.873,0,0,1,1788.239,792.639Z" transform="translate(-1588.663 -766.96)" fill="#fff" fill-rule="evenodd"/>
    <path id="Trazado_8854" data-name="Trazado 8854" d="M2338.779,807.834a.874.874,0,0,1-.872-.885v-8.707a.882.882,0,0,0-.872-.886h-15.657a.873.873,0,0,0-.872.886v8.707a.882.882,0,0,1-.872.885h-3.461a.873.873,0,0,1-.872-.885V786.032h0v-.215a5.016,5.016,0,0,1,5-5.018h18.059a5.026,5.026,0,0,1,4.79,5v.215h0v20.916a.882.882,0,0,1-.872.885h-3.5Zm-18.287-19.628v4.347a.882.882,0,0,0,.872.885h15.657a.873.873,0,0,0,.872-.885v-4.347a3.055,3.055,0,0,0-3.046-3.059h-11.31A3.055,3.055,0,0,0,2320.492,788.206Z" transform="translate(-2049.46 -766.874)" fill="#fff" fill-rule="evenodd"/>
    <path id="Trazado_8855" data-name="Trazado 8855" d="M2053.616,780.7a.834.834,0,0,1,.657.309l15.4,18.367a.869.869,0,0,0,1.53-.577V781.586a.882.882,0,0,1,.872-.885h3.435a.873.873,0,0,1,.872.885v25.277a.882.882,0,0,1-.872.885h-4.266a.029.029,0,0,1-.027-.027c0-.013,0-.013-.013-.027l-15.67-18.233a.872.872,0,0,0-1.529.577v16.838a.882.882,0,0,1-.872.885h-3.462a.873.873,0,0,1-.872-.885v-25.29a.882.882,0,0,1,.872-.885Z" transform="translate(-1818.714 -766.787)" fill="#fff"/>
    <path id="Trazado_8856" data-name="Trazado 8856" d="M345.233,984.871a2.275,2.275,0,0,1,1.61-.671h55.88a1.138,1.138,0,0,1,.8,1.945l-11.042,11.028a2.275,2.275,0,0,1-1.61.671H335.01a1.138,1.138,0,0,1-.8-1.945Z" transform="translate(-333.865 -942.984)" fill="url(#linear-gradient)"/>
    <path id="Trazado_8857" data-name="Trazado 8857" d="M345.233,677.671a2.275,2.275,0,0,1,1.61-.671h55.88a1.138,1.138,0,0,1,.8,1.945l-11.042,11.028a2.275,2.275,0,0,1-1.61.671H335.01a1.138,1.138,0,0,1-.8-1.945Z" transform="translate(-333.865 -677)" fill="url(#linear-gradient-2)"/>
    <path id="Trazado_8858" data-name="Trazado 8858" d="M392.486,830.271a2.275,2.275,0,0,0-1.61-.671H335.01a1.138,1.138,0,0,0-.8,1.945l11.042,11.028a2.275,2.275,0,0,0,1.61.671h55.88a1.138,1.138,0,0,0,.8-1.945Z" transform="translate(-333.865 -809.126)" fill="url(#linear-gradient-3)"/>
  </g>
</svg>
