<svg id="Grupo_18925" data-name="Grupo 18925" xmlns="http://www.w3.org/2000/svg" width="227.624" height="83.913" viewBox="0 0 227.624 83.913">
  <g id="cardano" transform="translate(0 0)">
    <path id="Trazado_8859" data-name="Trazado 8859" d="M44.291.24a2.544,2.544,0,0,1,3.344,3.34,2.562,2.562,0,0,1-4.109.812A2.585,2.585,0,0,1,44.291.24M23,2.535a1.975,1.975,0,0,1,2.6,1.917,1.972,1.972,0,0,1-2.838,1.794A2.015,2.015,0,0,1,23,2.535m43.6,3.751a1.989,1.989,0,0,1-.367-3.776c1.4-.684,2.69.6,2.9,1.929a2.182,2.182,0,0,1-2.528,1.847M27.846,11.6a3.08,3.08,0,1,1-.433,5.087,3.107,3.107,0,0,1,.433-5.087m30.687,1.349a3.108,3.108,0,0,1,5.552-.131c1.009,1.751-.232,3.919-2.03,4.514-2.381.445-4.643-2.13-3.522-4.383M41.728,17.2a3.823,3.823,0,0,1,3.678-3.6,4.039,4.039,0,0,1,3.154,2.048,3.628,3.628,0,0,1-1.7,4.944,4.809,4.809,0,0,1-2.706.236A3.935,3.935,0,0,1,41.728,17.2m-31.66,2.895a2.542,2.542,0,1,1-.41,4.252,2.575,2.575,0,0,1,.41-4.252m67.986,0a2.532,2.532,0,1,1,.278,4.368,2.533,2.533,0,0,1-.278-4.368M50.631,23.659a6.139,6.139,0,1,1-3.8,7.97,6.165,6.165,0,0,1,3.8-7.97m-15.084.306a6.136,6.136,0,1,1-2.861,8.3,6.188,6.188,0,0,1,2.861-8.3m-15.1,5.164a3.857,3.857,0,0,1,3.7-3.154,4.071,4.071,0,0,1,3.591,3.594,3.83,3.83,0,0,1-3.58,3.718,3.6,3.6,0,0,1-3.707-4.159m44.612-2.755a3.62,3.62,0,1,1-.271,6.265,3.646,3.646,0,0,1,.271-6.265M29.408,36.059a6.134,6.134,0,1,1-3.951,8.56,6.188,6.188,0,0,1,3.951-8.56m28.611-.014a6.142,6.142,0,1,1-3.619,8.8,6.2,6.2,0,0,1,3.619-8.8M12.425,39.1a3.105,3.105,0,0,1,3.885,3.915,3.07,3.07,0,0,1-4.968,1.3A3.107,3.107,0,0,1,12.425,39.1m61.822,3.282A3.49,3.49,0,0,1,77.5,38.71a3.27,3.27,0,0,1,2.957,3.208,3.08,3.08,0,0,1-4.477,2.717,4.158,4.158,0,0,1-1.735-2.257M1.211,40.206a2,2,0,1,1-.8,3.061A2.032,2.032,0,0,1,1.211,40.206Zm86.521-.035a1.979,1.979,0,0,1,2.9.935A1.949,1.949,0,0,1,88.7,43.821c-1.948.178-2.578-2.791-.97-3.649m-50.87,8.283a6.134,6.134,0,1,1-4.775,5.912,6.205,6.205,0,0,1,4.775-5.912m14.3-.008a6.142,6.142,0,1,1-4.493,4.533,6.172,6.172,0,0,1,4.493-4.533M23.59,50.735a3.62,3.62,0,1,1-2.25,5.971,3.647,3.647,0,0,1,2.25-5.971m41.936.113a3.616,3.616,0,1,1-.684,6.451,3.625,3.625,0,0,1,.684-6.451M77.248,62.605A2.52,2.52,0,0,1,79.8,59.072a3.117,3.117,0,0,1,2.134,1.306c.12.978.321,2.145-.491,2.9a2.523,2.523,0,0,1-4.2-.672M10.06,59.532a2.557,2.557,0,0,1,3.792,2.563,2.546,2.546,0,1,1-3.792-2.563M43.9,63.239a3.609,3.609,0,1,1-.673,6.412,3.651,3.651,0,0,1,.673-6.412M28.225,66.9a3.068,3.068,0,0,1,4.3,2.868,3.031,3.031,0,0,1-3.386,2.991c-1.434-.031-2.37-1.317-2.83-2.54a3.433,3.433,0,0,1,1.918-3.32m31.746.031a3.083,3.083,0,1,1-.363,5.165,3.108,3.108,0,0,1,.363-5.165m5.521,13.648a2.174,2.174,0,0,1,1.573-3.216c1.141.232,2.347,1.09,2.107,2.412a2.028,2.028,0,0,1-3.68.8M21.668,79.426c.348-1.048,1.191-2.089,2.424-1.816a2.006,2.006,0,0,1,.758,3.672c-1.415.954-3.056-.352-3.182-1.856m21.142,1.2a2.518,2.518,0,0,1,3.673-1.48c.874.375,1.129,1.353,1.353,2.184-.12.433-.227.866-.332,1.3a2.859,2.859,0,0,1-2.138,1.26,2.518,2.518,0,0,1-2.556-3.262" transform="translate(0.002 0.009)" fill="#3cc8c8"/>
  </g>
  <text id="CARDANO-2" data-name="CARDANO" transform="translate(110.624 50)" fill="#e0dff1" font-size="23" font-family="Poppins-SemiBold, Poppins" font-weight="600"><tspan x="0" y="0">CARDANO</tspan></text>
</svg>
