<svg xmlns="http://www.w3.org/2000/svg" xmlns:xlink="http://www.w3.org/1999/xlink" width="200.526" height="46.769" viewBox="0 0 200.526 46.769">
  <defs>
    <clipPath id="clip-path">
      <rect id="Rectángulo_670" data-name="Rectángulo 670" width="46.769" height="46.769" fill="#9996ba"/>
    </clipPath>
  </defs>
  <g id="Grupo_18717" data-name="Grupo 18717" transform="translate(-140 -1080)">
    <g id="Grupo_18716" data-name="Grupo 18716" transform="translate(140 1080)" clip-path="url(#clip-path)">
      <path id="Trazado_8696" data-name="Trazado 8696" d="M170.593,7.98C169,11.108,169,15.2,169,23.385s0,12.277,1.593,15.4a14.656,14.656,0,0,0,6.388,6.387c3.127,1.593,7.22,1.593,15.4,1.593s12.277,0,15.4-1.593a14.656,14.656,0,0,0,6.388-6.387c1.593-3.128,1.593-7.22,1.593-15.4s0-12.277-1.593-15.4a14.656,14.656,0,0,0-6.388-6.387C204.661,0,200.569,0,192.385,0s-12.277,0-15.4,1.593A14.657,14.657,0,0,0,170.593,7.98Zm33.462,4.633a1.522,1.522,0,0,1,1.52,1.542c-.073,4.355-.241,7.688-.555,10.326a21.576,21.576,0,0,1-1.461,6.182,9.794,9.794,0,0,1-1.726,2.682,13.42,13.42,0,0,1-3.1,2.382c-.487.291-.994.579-1.526.881-1.134.644-2.382,1.352-3.794,2.3a1.511,1.511,0,0,1-1.687,0c-1.435-.957-2.7-1.673-3.844-2.323l-.746-.425a16.231,16.231,0,0,1-3.6-2.58,9.172,9.172,0,0,1-1.791-2.572,18.033,18.033,0,0,1-1.433-5.13,89.579,89.579,0,0,1-.737-11.722,1.52,1.52,0,0,1,.431-1.089,1.548,1.548,0,0,1,1.089-.453h.628a15.928,15.928,0,0,0,9.909-3.062,1.526,1.526,0,0,1,1.865,0,15.935,15.935,0,0,0,9.916,3.062Zm-3.4,17.078a15.174,15.174,0,0,0,1.169-4.275,80.116,80.116,0,0,0,.681-9.778,18.659,18.659,0,0,1-9.932-3.018,18.782,18.782,0,0,1-9.924,3.018c.081,3.551.241,6.314.5,8.484a18.987,18.987,0,0,0,1.228,5.32,6.472,6.472,0,0,0,1.177,1.841,10.415,10.415,0,0,0,2.418,1.842c.433.26.911.531,1.431.825.927.525,1.988,1.125,3.172,1.879,1.163-.741,2.209-1.336,3.125-1.856q.414-.235.793-.453a13.677,13.677,0,0,0,2.945-2.068A6.468,6.468,0,0,0,200.656,29.691Z" transform="translate(-169)" fill="#9996ba" fill-rule="evenodd"/>
    </g>
    <path id="Trazado_8697" data-name="Trazado 8697" d="M222.869,15.971h-5.238V12.884H231.9v3.087h-5.238V29.253h-3.788Zm13.316,2.362a4.072,4.072,0,0,1,1.754-1.38,6.643,6.643,0,0,1,2.572-.468v3.367q-.607-.047-.818-.047a3.317,3.317,0,0,0-2.455.889,3.5,3.5,0,0,0-.889,2.619v5.94H232.7V16.672h3.484Zm18.56-1.66V29.253h-3.461v-1.5a4.977,4.977,0,0,1-1.73,1.263,5.578,5.578,0,0,1-2.175.421,5.357,5.357,0,0,1-3.929-1.426A5.683,5.683,0,0,1,242,23.781V16.672h3.648v6.571q0,3.04,2.549,3.04a2.761,2.761,0,0,0,2.1-.842,3.65,3.65,0,0,0,.8-2.549v-6.22Zm6.911,12.768a12.573,12.573,0,0,1-3.063-.374,8.19,8.19,0,0,1-2.385-.982l1.216-2.619a7.918,7.918,0,0,0,2.034.889,8.809,8.809,0,0,0,2.338.327q2.315,0,2.315-1.146a.811.811,0,0,0-.631-.772,9.358,9.358,0,0,0-1.941-.4,18.7,18.7,0,0,1-2.549-.538,4.032,4.032,0,0,1-1.754-1.076,3.087,3.087,0,0,1-.725-2.2,3.427,3.427,0,0,1,.678-2.1A4.481,4.481,0,0,1,259.2,17a8.68,8.68,0,0,1,3.133-.514,11.651,11.651,0,0,1,2.642.3,7.217,7.217,0,0,1,2.2.8l-1.216,2.6a7.261,7.261,0,0,0-3.625-.935,3.684,3.684,0,0,0-1.754.327.962.962,0,0,0-.585.842.836.836,0,0,0,.631.818,11.156,11.156,0,0,0,2.011.444,19.782,19.782,0,0,1,2.526.561,3.707,3.707,0,0,1,1.707,1.052,3.023,3.023,0,0,1,.725,2.151,3.322,3.322,0,0,1-.7,2.081,4.555,4.555,0,0,1-2.058,1.426A9.216,9.216,0,0,1,261.655,29.44Zm15.6-.8a3.892,3.892,0,0,1-1.333.608,6.929,6.929,0,0,1-1.637.187,4.943,4.943,0,0,1-3.484-1.146,4.412,4.412,0,0,1-1.216-3.367V19.759h-1.941V16.953h1.941V13.89h3.648v3.063h3.134v2.806h-3.134V24.88a1.8,1.8,0,0,0,.4,1.239,1.581,1.581,0,0,0,1.169.421,2.343,2.343,0,0,0,1.473-.468Zm32.266-15.761-5.355,16.369H300.1l-3.6-11.084L292.78,29.253h-4.046l-5.378-16.369h3.929l3.695,11.505,3.858-11.505h3.508l3.742,11.6,3.812-11.6Zm5.295,3.6a6.513,6.513,0,0,1,4.49,1.4,5.29,5.29,0,0,1,1.567,4.186v7.179h-3.414V27.687q-1.03,1.754-3.835,1.754a6.027,6.027,0,0,1-2.526-.491,3.759,3.759,0,0,1-1.613-1.356,3.53,3.53,0,0,1-.561-1.964,3.286,3.286,0,0,1,1.31-2.759,6.788,6.788,0,0,1,4.092-1.006h2.9a2.291,2.291,0,0,0-.725-1.824,3.155,3.155,0,0,0-2.175-.655,6.248,6.248,0,0,0-1.988.327,5.061,5.061,0,0,0-1.637.842l-1.31-2.549a7.9,7.9,0,0,1,2.455-1.122A11.175,11.175,0,0,1,314.818,16.485Zm-.281,10.5a3.249,3.249,0,0,0,1.66-.421,2.428,2.428,0,0,0,1.029-1.286V23.992h-2.5q-2.245,0-2.245,1.473a1.351,1.351,0,0,0,.538,1.122A2.583,2.583,0,0,0,314.538,26.985ZM323.474,11.9h3.648V29.253h-3.648Zm6.332,0h3.648V29.253h-3.648ZM348.462,23.01q0,.07-.07.982h-9.517a2.964,2.964,0,0,0,1.216,1.847,4.026,4.026,0,0,0,2.385.678,4.911,4.911,0,0,0,1.73-.281,4.35,4.35,0,0,0,1.426-.935l1.941,2.1a6.524,6.524,0,0,1-5.191,2.034,8.31,8.31,0,0,1-3.765-.818,6.158,6.158,0,0,1-2.526-2.315,6.35,6.35,0,0,1-.889-3.344,6.429,6.429,0,0,1,.865-3.321,6.138,6.138,0,0,1,2.409-2.315,7.435,7.435,0,0,1,6.782-.047,5.7,5.7,0,0,1,2.338,2.292A6.659,6.659,0,0,1,348.462,23.01Zm-6.524-3.765a3.142,3.142,0,0,0-2.081.7,2.984,2.984,0,0,0-1.029,1.918h6.2A2.966,2.966,0,0,0,344,19.97,3.044,3.044,0,0,0,341.938,19.245Zm16.365,9.4a3.892,3.892,0,0,1-1.333.608,6.929,6.929,0,0,1-1.637.187,4.943,4.943,0,0,1-3.484-1.146,4.412,4.412,0,0,1-1.216-3.367V19.759h-1.941V16.953h1.941V13.89h3.648v3.063h3.134v2.806h-3.134V24.88a1.8,1.8,0,0,0,.4,1.239,1.581,1.581,0,0,0,1.169.421,2.343,2.343,0,0,0,1.473-.468Z" transform="translate(-17.778 1083.098)" fill="#9996ba"/>
  </g>
</svg>
