<svg xmlns="http://www.w3.org/2000/svg" width="191.85" height="56.647" viewBox="0 0 191.85 56.647">
  <g id="Grupo_18718" data-name="Grupo 18718" transform="translate(-429 -1074)">
    <g id="svgexport-1" transform="translate(429 1074)">
      <path id="Trazado_8698" data-name="Trazado 8698" d="M4.626,1.711c-.738-.114-.769-.127-.422-.18a11.534,11.534,0,0,1,3.321.293c2.529.6,4.83,2.128,7.287,4.846l.653.722.934-.149A19.806,19.806,0,0,1,27.678,8.65a14.618,14.618,0,0,1,2.554,1.48,3.918,3.918,0,0,1,.236.986,6.11,6.11,0,0,1-.38,3.83,1,1,0,0,0-.105,1.108,1.078,1.078,0,0,0,.964.606c.831,0,1.726-1.337,2.141-3.2l.165-.738.326.367a14.23,14.23,0,0,1,3.438,6.722l.063.51-.3-.464a5.738,5.738,0,0,0-1.7-1.78c-1.2-.79-2.471-1.059-5.834-1.235a23.856,23.856,0,0,1-6.462-.969c-2.9-.94-4.362-2.192-7.808-6.684a32.806,32.806,0,0,0-3.417-3.989A12.241,12.241,0,0,0,4.626,1.711Z" transform="translate(11.674 2.417)" fill="#9996ba"/>
      <path id="Trazado_8699" data-name="Trazado 8699" d="M14.411,5.373a8.081,8.081,0,0,1,.626-3.025,3.24,3.24,0,0,1,.3-.58,2,2,0,0,1-.141.523,6.833,6.833,0,0,0-.127,3.095c.233,1.578.366,1.806,2.044,3.511.787.8,1.7,1.808,2.035,2.241l.6.787-.6-.563a25.7,25.7,0,0,0-2.81-2.222c-.252-.129-.289-.126-.444.027s-.173.354-.193,1.358A7.557,7.557,0,0,1,14.94,14.1c-.28.543-.325.427-.071-.186a4.864,4.864,0,0,0,.207-2.174c0-3.044-.367-3.776-2.5-5.03-.54-.318-1.43-.776-1.978-1.018a7.506,7.506,0,0,1-.967-.469,20.716,20.716,0,0,1,2.977.864c1.245.476,1.451.538,1.6.48C14.313,6.528,14.362,6.235,14.411,5.373Z" transform="translate(28.18 3.21)" fill="#9996ba"/>
      <path id="Trazado_8700" data-name="Trazado 8700" d="M6.2,10.178A12.347,12.347,0,0,1,3.971,2.633l.062-.727.341.062A8.594,8.594,0,0,1,6.636,2.8C8.056,3.661,8.67,4.789,9.3,7.686c.183.848.423,1.808.534,2.134a14.4,14.4,0,0,0,1.4,2.539c.394.572.132.842-.738.764A7.088,7.088,0,0,1,6.2,10.178Z" transform="translate(11.538 3.613)" fill="#9996ba"/>
      <path id="Trazado_8701" data-name="Trazado 8701" d="M17.444,15.68c-7-2.8-9.47-5.235-9.47-9.34a6.583,6.583,0,0,1,.046-1.1,5.313,5.313,0,0,1,.6.443c1.42,1.132,3.011,1.616,7.413,2.254a30.826,30.826,0,0,1,5.394,1.122c4.275,1.409,6.919,4.269,7.55,8.163a13.386,13.386,0,0,1-.221,4.373,8.383,8.383,0,0,1-1.14,2.537c-.053.017-.1-.184-.118-.457a5.629,5.629,0,0,0-2.064-3.953C24.016,18.512,22.109,17.547,17.444,15.68Z" transform="translate(23.329 13.373)" fill="#9996ba"/>
      <path id="Trazado_8702" data-name="Trazado 8702" d="M20.266,9.69a12.3,12.3,0,0,0-.338-1.473l-.179-.529.332.37a5.924,5.924,0,0,1,1.13,2.042,4.409,4.409,0,0,1,.259,1.948,4.337,4.337,0,0,1-.248,1.886,5.96,5.96,0,0,1-1.478,2.337,8.444,8.444,0,0,1-5.3,2.308c-.413.051-1.615.139-2.672.193a20.928,20.928,0,0,0-5.993.972,1.272,1.272,0,0,1-.449.107,8.278,8.278,0,0,1,1.9-1.123,18.349,18.349,0,0,1,5.28-1.386c1.377-.228,2.8-.5,3.159-.614C19.075,15.689,20.827,13.008,20.266,9.69Z" transform="translate(15.59 20.528)" fill="#9996ba"/>
      <path id="Trazado_8703" data-name="Trazado 8703" d="M10.625,14.147a8.022,8.022,0,0,1-.634-5.7c.055-.191.142-.348.2-.348a1.891,1.891,0,0,1,.488.262c.429.287,1.289.77,3.58,2.012a17.715,17.715,0,0,1,5.6,4.12,8.933,8.933,0,0,1,1.861,4.235,14.329,14.329,0,0,1-.176,4.167,10.353,10.353,0,0,1-5.1,6.728,6.564,6.564,0,0,1-.745.367,2.725,2.725,0,0,1,.3-.764,6.836,6.836,0,0,0,.307-5.442,23.084,23.084,0,0,0-2.839-5.057A34.066,34.066,0,0,1,10.625,14.147Z" transform="translate(28.441 21.738)" fill="#9996ba"/>
      <path id="Trazado_8704" data-name="Trazado 8704" d="M3.827,15.593a19.012,19.012,0,0,1,8.778-4.206,13.776,13.776,0,0,1,4.56.175,7.822,7.822,0,0,1,4.447,2.832,10.168,10.168,0,0,1,1.607,4.763c.151.956.315,1.916.365,2.134a4.718,4.718,0,0,0,1.54,2.764c1.1.8,3,.85,4.861.128a2.425,2.425,0,0,1,.61-.188,5.545,5.545,0,0,1-1.533,1.02,5.239,5.239,0,0,1-2.542.614A5.088,5.088,0,0,1,22.211,23,20.81,20.81,0,0,1,21.048,20.7C19.8,17.866,19.182,17,17.732,16.06a4.3,4.3,0,0,0-4.114-.372,2.641,2.641,0,0,0-.905,4.122,3.576,3.576,0,0,0,2.01,1.045,2.141,2.141,0,0,0,2.429-2.137,1.665,1.665,0,0,0-1.158-1.708c-1.132-.508-2.348.086-2.342,1.142a.947.947,0,0,0,.654.938c.292.131.3.141.061.092a1.287,1.287,0,0,1-.447-2.284,2.56,2.56,0,0,1,3.786.8,3.471,3.471,0,0,1,.073,2.384,3.316,3.316,0,0,1-4.01,1.9c-1.175-.3-1.653-.621-3.07-2.071-2.461-2.52-3.417-3.009-6.966-3.559l-.68-.106Z" transform="translate(8.933 31.019)" fill="#9996ba"/>
      <path id="Trazado_8705" data-name="Trazado 8705" d="M1.211,2.007c8.22,9.916,13.882,14.007,14.511,14.872.519.714.324,1.355-.566,1.858a5.422,5.422,0,0,1-2.022.563,1.052,1.052,0,0,1-.774-.221c-.334-.315-.522-.26-2.238-3.287C7.74,12.119,5.747,9.072,5.692,9.021c-.126-.118-.124-.114,4.187,7.551a2.719,2.719,0,0,1,.138,2.412c0,.463-.127.706-.7,1.343-.958,1.062-1.386,2.255-1.695,4.725C7.275,27.819,6.3,29.775,3.6,33.122a15.978,15.978,0,0,0-2.238,3.108,5.7,5.7,0,0,0-.7,2.807A8.689,8.689,0,0,0,1.13,42.49,12.333,12.333,0,0,0,2.814,45.8a7.669,7.669,0,0,1,1.3,2.576c0,.293.056.293,1.331.007a13.849,13.849,0,0,0,6.921-3.365,3.17,3.17,0,0,0,1.071-2.669,2.592,2.592,0,0,0-.247-1.462A6.441,6.441,0,0,0,10.71,38.5C8.8,37.2,7.99,36.16,7.765,34.727c-.184-1.176.03-2.006,1.084-4.2a12.66,12.66,0,0,0,1.545-5.533c.118-1.48.282-2.064.71-2.533a2.672,2.672,0,0,1,1.953-.8,6.659,6.659,0,0,0,3.89-1.571,3.349,3.349,0,0,0,1.212-2.557l.04-.823-.457-.529C16.087,14.256.1.5,0,.5-.021.5.523,1.178,1.211,2.007ZM5.039,40.538a1.451,1.451,0,0,0-.45-1.919c-.591-.391-1.51-.206-1.51.3,0,.155.086.269.281.368.328.168.352.356.094.742s-.24.734.06.967A1.031,1.031,0,0,0,5.039,40.538Z" transform="translate(0 -0.5)" fill="#9996ba" fill-rule="evenodd"/>
      <path id="Trazado_8706" data-name="Trazado 8706" d="M6.415,6.057A3.164,3.164,0,0,0,4.494,8.139a2.949,2.949,0,0,0,.165,1.877c.376.5.739.63,1.722.623,1.925-.013,3.6-.834,3.793-1.86A2.734,2.734,0,0,0,8.586,6.262,3.789,3.789,0,0,0,6.415,6.057ZM8.666,7.806a.774.774,0,0,0-.338-1.179c-.962-.584-2.416-.1-2.416.8,0,.449.758.94,1.453.94A1.882,1.882,0,0,0,8.666,7.806Z" transform="translate(12.919 15.528)" fill="#9996ba" fill-rule="evenodd"/>
    </g>
    <text id="UNISWAP" transform="translate(490.85 1113)" fill="#9996ba" font-size="30" font-family="Poppins-Light, Poppins" font-weight="300"><tspan x="0" y="0">UNISWAP</tspan></text>
  </g>
</svg>
