<svg xmlns="http://www.w3.org/2000/svg" width="268.085" height="46.1" viewBox="0 0 268.085 46.1">
  <path id="Trazado_8707" data-name="Trazado 8707" d="M39.493,27.547a2.42,2.42,0,0,1-2.47.165c-.914-.516-1.417-1.725-1.417-3.406V19.278c0-2.429-.96-4.157-2.566-4.623-2.721-.793-4.767,2.537-5.536,3.787l-4.8,7.781v-9.51c-.054-2.188-.765-3.5-2.114-3.891-.893-.261-2.229-.156-3.526,1.829L6.313,31.913A18.967,18.967,0,0,1,4.128,23.05,18.741,18.741,0,0,1,22.7,4.191,18.74,18.74,0,0,1,41.281,23.05c0,.018,0,.034.006.051s0,.034,0,.052c.1,2.014-.555,3.616-1.791,4.4Zm5.915-4.5h0v-.1A22.9,22.9,0,0,0,22.7,0,22.905,22.905,0,0,0,0,23.05,22.906,22.906,0,0,0,22.7,46.1,22.445,22.445,0,0,0,38.14,39.953a2.116,2.116,0,0,0,.11-2.96,2.043,2.043,0,0,0-2.917-.112A18.364,18.364,0,0,1,8.881,35.632l9.7-15.568V27.24c0,3.447,1.337,4.562,2.458,4.888s2.837.1,4.637-2.82L31,20.663c.171-.279.328-.519.472-.727v4.372c0,3.222,1.291,5.8,3.541,7.069a6.492,6.492,0,0,0,6.656-.27c2.519-1.591,3.876-4.522,3.734-8.055Zm31.61-7.875a2.229,2.229,0,0,1,1.018,1.734,1.977,1.977,0,0,1-1.926,1.954,2.306,2.306,0,0,1-.726-.147,7.381,7.381,0,0,0-4.324-1.475c-3.778,0-6.394,3.1-6.394,6.933s2.616,6.9,6.394,6.9a7.083,7.083,0,0,0,4.833-1.954,1.962,1.962,0,0,1,1.127-.369,1.812,1.812,0,0,1,1.817,1.844,1.95,1.95,0,0,1-.908,1.585A10.736,10.736,0,0,1,71.1,34.759a10.7,10.7,0,0,1,0-21.39,10.518,10.518,0,0,1,5.922,1.807Zm10.63,4.463a7.447,7.447,0,0,1,7.3,7.486,7.578,7.578,0,0,1-7.3,7.635,7.7,7.7,0,0,1-7.594-7.635A7.577,7.577,0,0,1,87.648,19.638Zm-.037,11.433c1.745,0,3.234-1.66,3.234-3.909a3.346,3.346,0,0,0-3.234-3.651,3.405,3.405,0,0,0-3.452,3.651A3.657,3.657,0,0,0,87.611,31.071Zm9.83,1.4V21.925a2.079,2.079,0,0,1,2.035-2.1,2.11,2.11,0,0,1,2.071,2.1V32.472a2.11,2.11,0,0,1-2.071,2.1,2.079,2.079,0,0,1-2.035-2.1ZM97.115,15.84a2.415,2.415,0,0,1,2.361-2.471,2.453,2.453,0,0,1,2.434,2.471,2.415,2.415,0,0,1-2.434,2.4A2.375,2.375,0,0,1,97.115,15.84Zm12.3,10.915v5.716a2.11,2.11,0,0,1-2.072,2.1,2.08,2.08,0,0,1-2.035-2.1V21.445a1.626,1.626,0,0,1,1.6-1.622,1.6,1.6,0,0,1,1.563,1.622,6.064,6.064,0,0,1,4.5-1.807c4.106,0,5.923,3.1,5.923,6.6v6.232a2.11,2.11,0,0,1-2.071,2.1,2.079,2.079,0,0,1-2.035-2.1V26.756c0-1.807-.218-3.319-2.8-3.319-1.817,0-2.58,1.512-2.58,3.319Zm22.837,2.177a1.337,1.337,0,0,1-1.054-.517l-4.8-5.2v9.256a2.11,2.11,0,0,1-2.071,2.1,2.079,2.079,0,0,1-2.035-2.1V14.145a.8.8,0,0,1,.765-.517,1.349,1.349,0,0,1,.871.517l7.63,8.593a.73.73,0,0,0,1.308,0l7.631-8.594a1.343,1.343,0,0,1,.871-.517.8.8,0,0,1,.763.517V32.472a2.079,2.079,0,0,1-2.035,2.1,2.11,2.11,0,0,1-2.071-2.1V23.216l-4.8,5.2a1.31,1.31,0,0,1-.982.517ZM152,31.071a3.652,3.652,0,0,0,3.415-3.909A3.505,3.505,0,0,0,152,23.437a3.419,3.419,0,0,0-3.271,3.725C148.732,29.337,150.186,31.071,152,31.071Zm4.36,1.881-.074-.48c-.8,1.585-3.343,2.287-4.978,2.287-3.852,0-6.686-3.5-6.686-7.635s2.907-7.486,6.9-7.486a6.365,6.365,0,0,1,4.76,2.287l.073-.48a1.6,1.6,0,0,1,1.563-1.622,1.625,1.625,0,0,1,1.6,1.622V32.952a1.625,1.625,0,0,1-1.6,1.622,1.6,1.6,0,0,1-1.563-1.622Zm14.553-9.516h-.435c-2.58.148-3.089,1.624-3.089,3.319v5.716a2.11,2.11,0,0,1-2.071,2.1,2.079,2.079,0,0,1-2.035-2.1V21.445a1.625,1.625,0,0,1,1.6-1.622,1.6,1.6,0,0,1,1.563,1.622,5.826,5.826,0,0,1,4.033-1.807h.4a1.9,1.9,0,0,1,.036,3.8Zm15.826,8.078a1.867,1.867,0,0,1,.291,1A2.149,2.149,0,0,1,185,34.575a2.536,2.536,0,0,1-1.817-1.143l-4.722-5.495v4.536a2.111,2.111,0,0,1-2.072,2.1,2.079,2.079,0,0,1-2.035-2.1V15.73a2.079,2.079,0,0,1,2.035-2.1,2.109,2.109,0,0,1,2.071,2.1V26.167l4.724-5.237a2.536,2.536,0,0,1,1.781-1.106,2.076,2.076,0,0,1,1.962,2.028,1.807,1.807,0,0,1-.255.959L182.927,26.9l3.815,4.61Zm8.051-8c-1.127,0-2.944.59-2.944,2.323h5.922c0-1.77-1.889-2.323-2.98-2.323Zm5.377,4.942h-8.32c0,2.471,2.361,2.84,3.415,2.84a7.2,7.2,0,0,0,2.689-.517,2,2,0,0,1,1.054-.332,1.7,1.7,0,0,1,1.671,1.7,1.76,1.76,0,0,1-.907,1.474,7.531,7.531,0,0,1-4.469,1.143c-4.142,0-7.594-2.249-7.594-7.45,0-4.093,2.107-7.671,7.013-7.671,3.96,0,6.976,2.582,7.049,7.192a1.625,1.625,0,0,1-1.6,1.622ZM211.6,34.759h-1.127c-3.126,0-4.942-1.365-4.942-6.27V23.437h-1.054a1.9,1.9,0,0,1,0-3.8h1.054V15.729a2.079,2.079,0,0,1,2.035-2.1,2.111,2.111,0,0,1,2.071,2.1v3.909h1.707a1.9,1.9,0,0,1,0,3.8h-1.707v4.241c0,2.8.145,3.393,1.381,3.393h.581a1.836,1.836,0,0,1,1.816,1.844,1.859,1.859,0,0,1-1.816,1.844Zm19.895-19.583a2.232,2.232,0,0,1,1.018,1.734,1.977,1.977,0,0,1-1.926,1.954,2.3,2.3,0,0,1-.726-.147,7.381,7.381,0,0,0-4.324-1.475c-3.778,0-6.4,3.1-6.4,6.933s2.616,6.9,6.4,6.9a7.083,7.083,0,0,0,4.833-1.954,1.962,1.962,0,0,1,1.127-.369,1.811,1.811,0,0,1,1.816,1.844,1.949,1.949,0,0,1-.907,1.585,10.739,10.739,0,0,1-6.832,2.582,10.7,10.7,0,0,1,0-21.39A10.519,10.519,0,0,1,231.493,15.176Zm10.412,15.9a3.652,3.652,0,0,0,3.415-3.909,3.506,3.506,0,0,0-3.416-3.725,3.419,3.419,0,0,0-3.27,3.725c0,2.176,1.454,3.909,3.27,3.909Zm4.359,1.881-.072-.48c-.8,1.585-3.343,2.287-4.979,2.287-3.851,0-6.686-3.5-6.686-7.635s2.908-7.486,6.9-7.486a6.368,6.368,0,0,1,4.761,2.287l.072-.48a1.6,1.6,0,0,1,1.563-1.622,1.626,1.626,0,0,1,1.6,1.622V32.952a1.626,1.626,0,0,1-1.6,1.622A1.6,1.6,0,0,1,246.264,32.952Zm14.445-1.881c1.817,0,3.27-1.734,3.27-3.909a3.418,3.418,0,0,0-3.27-3.725,3.505,3.505,0,0,0-3.416,3.725A3.653,3.653,0,0,0,260.709,31.071Zm-3.416,2.471v5.236a2.11,2.11,0,0,1-2.071,2.1,2.08,2.08,0,0,1-2.035-2.1V21.445a1.587,1.587,0,1,1,3.163.147,6.545,6.545,0,0,1,4.831-1.954c4,0,6.9,3.356,6.9,7.486s-2.833,7.635-6.686,7.635a7.487,7.487,0,0,1-4.106-1.217Z" fill="#9996ba" fill-rule="evenodd"/>
</svg>
