<svg id="pc_header" data-name="pc/header" xmlns="http://www.w3.org/2000/svg" width="165.612" height="47.515" viewBox="0 0 165.612 47.515">
  <g id="编组" transform="translate(0 0)">
    <path id="形状结合" d="M41.708,27.6v3.357c0,9.325-13.7,14.693-17.9,16.116h0l-1.527.521v-5.8l.746-.278c6.533-2.429,13.125-6.635,13.125-10.558h0V27.6ZM20.961.081l5.6,1.705V7.705l-5.6-1.711-.366.112V19.424h5.965v5.487H20.594v22.6l-1.555-.572c-.722-.265-1.885-.717-3.324-1.361h0l-.676-.3V1.886ZM13.282,2.443V8.336L5.7,10.661v8.762h7.586V44.8l-1.68-.854C6.373,41.291.141,36.81.141,30.552h0V27.6H5.7v2.95a6.066,6.066,0,0,0,2.03,4.056h0v-9.7H.141V6.45ZM28.245,2.3,41.708,6.418V24.911H33.8v8.007a17.243,17.243,0,0,1-5.553,4.2c0-1.059,0-17.34,0-27.259Zm105.416,8.509a8.265,8.265,0,1,1,.045,16.529l-5.325.014.025,9.23-4.347.012-.07-25.759Zm-20.395,7.944a8.964,8.964,0,0,1,9.02,8.908,8.823,8.823,0,0,1-.291,2.254H109.188a4.712,4.712,0,0,0,6.379,1.764V31.7l4.748,1.526a8.973,8.973,0,1,1-7.048-14.468Zm-9.889-7.942v4.293h-1.087a3.025,3.025,0,0,0-3.042,2.938v.711h4.129v4.293H99.248V36.573H94.9V23.049H92.945V18.756H94.9v-1.5a6.48,6.48,0,0,1,6.52-6.44ZM82.184,18.756l.07,0c.124,0,.249,0,.373.01a9.042,9.042,0,0,1,4.464,1.419l4.116-1.364V36.573H86.9V35.259a8.78,8.78,0,0,1-.851.456V35.7a8.849,8.849,0,0,1-1.354.517l-.088.024h0c-.111.029-.223.057-.335.085l-.171.04h0c-.09.018-.18.036-.271.051-.07.014-.139.026-.209.038-.088.014-.176.024-.267.036-.068.01-.137.02-.207.025-.108.012-.219.02-.327.028-.05,0-.1.008-.149.01-.163.009-.327.013-.492.013a9.042,9.042,0,0,1-5.37-1.754,10,10,0,0,1-1.005-.868A9.859,9.859,0,0,1,74.961,33a8.8,8.8,0,0,1-1.784-4.925c-.006-.123-.01-.246-.01-.371v-.045a8.966,8.966,0,0,1,9.013-8.9Zm68.462,0,.07,0c.125,0,.25,0,.373.01a9.046,9.046,0,0,1,4.465,1.419l4.115-1.364V36.573h-4.3V35.259a8.8,8.8,0,0,1-.852.456V35.7a8.8,8.8,0,0,1-1.354.517l-.089.024h0c-.11.029-.223.057-.335.085l-.17.04h0c-.09.018-.18.036-.271.051-.07.014-.138.026-.208.038-.089.014-.177.024-.267.036-.068.01-.137.02-.207.025-.109.012-.22.02-.327.028-.05,0-.1.008-.149.01-.162.009-.327.013-.491.013a9.04,9.04,0,0,1-5.37-1.754,9.963,9.963,0,0,1-1.006-.868,9.812,9.812,0,0,1-.844-.951,8.8,8.8,0,0,1-1.784-4.925c-.007-.123-.011-.246-.011-.371v-.045a8.967,8.967,0,0,1,9.013-8.9ZM165.753,10.9V36.573h-4.347V12.3Zm-103.976-.09a9.519,9.519,0,0,1,8.936,5.555q-4.108,1.317-4.638,1.48a4.72,4.72,0,0,0-4.3-2.294c-2.073,0-3.289,1.062-3.289,2.477,0,1.522.965,2.335,4.754,3.467,3.968,1.238,8.185,2.548,8.185,7.608,0,4.635-3.753,7.465-9.079,7.465-5.111,0-8.471-2.441-9.83-6.121q2.957-.935,4.736-1.366A5.6,5.6,0,0,0,62.493,31.8c2.967,0,4-1.238,4-2.618,0-1.84-1.68-2.547-5.4-3.609-3.825-1.1-7.542-2.689-7.542-7.395C53.557,13.5,57.489,10.814,61.778,10.814Zm20.3,12.021a4.723,4.723,0,1,0,4.78,4.724A4.753,4.753,0,0,0,82.079,22.835Zm68.462,0a4.723,4.723,0,1,0,4.78,4.724A4.753,4.753,0,0,0,150.541,22.835Zm-37.275.215a4.679,4.679,0,0,0-4.193,2.576h8.386A4.679,4.679,0,0,0,113.266,23.049Zm20.407-7.944-5.325.014.022,7.942,5.325-.014a3.971,3.971,0,1,0,.052-7.942ZM33.8,9.918v9.506h2.35V10.635Z" transform="translate(-0.141 -0.081)" fill="#9996ba" fill-rule="evenodd"/>
  </g>
</svg>
