<svg xmlns="http://www.w3.org/2000/svg" width="210" height="47.893" viewBox="0 0 210 47.893">
  <g id="Grupo_18715" data-name="Grupo 18715" transform="translate(-1432 -1081)">
    <path id="Trazado_8688" data-name="Trazado 8688" d="M193.5,30.112h6.263V49.406l6.932-8.019h7.684l-8.06,9.148,8.268,11.149H206.7l-6.846-10.276h-.084V61.681H193.5Z" transform="translate(1360.095 1057.921)" fill="#9996ba"/>
    <path id="Trazado_8689" data-name="Trazado 8689" d="M215.075,30.112h6.263V49.406l6.932-8.019h7.684l-8.06,9.148,8.268,11.149H228.27l-6.848-10.276h-.079V61.681H215.08Z" transform="translate(1361.738 1057.921)" fill="#9996ba"/>
    <path id="Trazado_8690" data-name="Trazado 8690" d="M249.458,58.375h-.084a5.888,5.888,0,0,1-2.777,2.337,9.547,9.547,0,0,1-3.659.71,9.4,9.4,0,0,1-2.735-.4,6.878,6.878,0,0,1-2.318-1.184,5.759,5.759,0,0,1-1.586-1.962,5.988,5.988,0,0,1-.584-2.715,6.216,6.216,0,0,1,.646-2.966,5.811,5.811,0,0,1,1.754-2,8.688,8.688,0,0,1,2.526-1.231,18.445,18.445,0,0,1,2.944-.646,27.957,27.957,0,0,1,3.049-.249q1.524-.042,2.819-.043a3.254,3.254,0,0,0-1.19-2.652,4.292,4.292,0,0,0-2.819-.98,6.134,6.134,0,0,0-2.82.646,7.716,7.716,0,0,0-2.275,1.772l-3.336-3.422a11.463,11.463,0,0,1,4.09-2.443,14.582,14.582,0,0,1,4.843-.816,12.637,12.637,0,0,1,4.531.69,6.59,6.59,0,0,1,2.839,2.024,7.816,7.816,0,0,1,1.483,3.279,21.565,21.565,0,0,1,.418,4.489V60.927h-5.763Zm-1.544-6.349c-.475,0-1.065.02-1.776.063a8.994,8.994,0,0,0-2.045.355,4.561,4.561,0,0,0-1.67.876,2.024,2.024,0,0,0-.69,1.629,1.791,1.791,0,0,0,.961,1.67,4.019,4.019,0,0,0,2,.543,6.292,6.292,0,0,0,1.775-.252A5.2,5.2,0,0,0,248,56.2a3.444,3.444,0,0,0,1.065-1.168,3.381,3.381,0,0,0,.4-1.67V52.026Z" transform="translate(1363.31 1058.684)" fill="#9996ba"/>
    <path id="Trazado_8691" data-name="Trazado 8691" d="M263.75,30.112V44.145h.084a3.758,3.758,0,0,1,.709-1.171,5.556,5.556,0,0,1,1.212-1.043,6.612,6.612,0,0,1,1.671-.753,7.21,7.21,0,0,1,2.088-.292,8.652,8.652,0,0,1,3.841.73,5.563,5.563,0,0,1,2.276,2.028,8.2,8.2,0,0,1,1.106,3.048,23.156,23.156,0,0,1,.293,3.8V61.684h-6.263V51.745c0-.587-.022-1.19-.063-1.818a5.7,5.7,0,0,0-.376-1.733,2.69,2.69,0,0,0-2.819-1.8,3.859,3.859,0,0,0-1.963.439,2.984,2.984,0,0,0-1.148,1.168,4.756,4.756,0,0,0-.522,1.65,14.185,14.185,0,0,0-.126,1.922V61.684h-6.263V30.112Z" transform="translate(1364.969 1057.921)" fill="#9996ba"/>
    <path id="Trazado_8692" data-name="Trazado 8692" d="M80.529,47.858c0-.108-.016-.223-.016-.336s.015-.223.016-.336Zm17.757.174A5.79,5.79,0,1,0,92.5,53.821a5.79,5.79,0,0,0,5.789-5.789Zm18.136-11.964a11.893,11.893,0,0,1,5.811,1.513V31.522a23.863,23.863,0,0,0-35.558,0v6.059a11.957,11.957,0,0,1,17.783,10.45,11.964,11.964,0,0,1,11.963-11.963Zm11.967,11.79c0-.108.016-.223.016-.336s-.016-.223-.016-.336ZM116.422,60a11.964,11.964,0,0,1-11.964-11.965,11.963,11.963,0,0,1-23.851,1.311,23.92,23.92,0,0,0,47.706,0A11.963,11.963,0,0,1,116.422,60Zm-5.79-11.965a5.79,5.79,0,1,0,5.789-5.789A5.79,5.79,0,0,0,110.632,48.031ZM86.678,31.486v-7.1H80.529V46.847a23.847,23.847,0,0,1,6.149-15.361Zm41.711,15.361V24.386H122.24v7.1a23.847,23.847,0,0,1,6.149,15.358Z" transform="translate(1351.487 1057.423)" fill="#9996ba"/>
    <path id="Trazado_8693" data-name="Trazado 8693" d="M139.183,31.908h11.052a28.042,28.042,0,0,1,3.874.271,10.583,10.583,0,0,1,3.5,1.089,6.7,6.7,0,0,1,2.512,2.281,7,7,0,0,1,.962,3.893,6.215,6.215,0,0,1-1.4,4.166,7.707,7.707,0,0,1-3.7,2.368v.085a8.47,8.47,0,0,1,2.658.816,7.115,7.115,0,0,1,2.051,1.549,6.608,6.608,0,0,1,1.318,2.2,7.728,7.728,0,0,1,.461,2.679,7.131,7.131,0,0,1-1,3.915,7.909,7.909,0,0,1-2.6,2.532,11.376,11.376,0,0,1-3.579,1.382,19.11,19.11,0,0,1-3.956.419H139.183Zm6.53,11.847h4.735a6.632,6.632,0,0,0,1.486-.168,4.107,4.107,0,0,0,1.318-.538,2.849,2.849,0,0,0,.943-1.005,3.026,3.026,0,0,0,.355-1.507,2.739,2.739,0,0,0-.4-1.528,2.8,2.8,0,0,0-1.026-.943,4.951,4.951,0,0,0-1.424-.481,8.624,8.624,0,0,0-1.549-.146h-4.438Zm0,12.268h5.864a7.2,7.2,0,0,0,1.528-.169,4.01,4.01,0,0,0,1.4-.585,3.323,3.323,0,0,0,1.026-1.088,3.15,3.15,0,0,0,.4-1.633,2.622,2.622,0,0,0-.523-1.7,3.336,3.336,0,0,0-1.319-.984,6.78,6.78,0,0,0-1.722-.461,12.878,12.878,0,0,0-1.722-.125H145.7Z" transform="translate(1355.957 1058.058)" fill="#9996ba"/>
    <path id="Trazado_8694" data-name="Trazado 8694" d="M164.623,34.849a3.645,3.645,0,1,1,1.068,2.575,3.512,3.512,0,0,1-1.068-2.575Zm.5,6.405h6.28V61.6h-6.28Z" transform="translate(1357.894 1058.004)" fill="#9996ba"/>
    <path id="Trazado_8695" data-name="Trazado 8695" d="M190.482,45.993h-5.526v6.78a12.468,12.468,0,0,0,.085,1.527,3.08,3.08,0,0,0,.376,1.193,1.9,1.9,0,0,0,.9.775,3.982,3.982,0,0,0,1.614.271,10.812,10.812,0,0,0,1.318-.108,2.231,2.231,0,0,0,1.234-.481v5.232a9.522,9.522,0,0,1-2.177.5,20.019,20.019,0,0,1-2.218.126,12.093,12.093,0,0,1-2.93-.335,6.709,6.709,0,0,1-2.345-1.068,5,5,0,0,1-1.569-1.9,6.515,6.515,0,0,1-.565-2.848V45.993h-4.02V40.97h4.02V34.943h6.278V40.97h5.526Z" transform="translate(1358.659 1058.289)" fill="#9996ba"/>
  </g>
</svg>
