<svg xmlns="http://www.w3.org/2000/svg" width="249.036" height="46.83" viewBox="0 0 249.036 46.83">
  <g id="Grupo_18720" data-name="Grupo 18720" transform="translate(-1714 -1080)">
    <g id="Grupo_18719" data-name="Grupo 18719" transform="translate(1714 1080)">
      <path id="Trazado_8708" data-name="Trazado 8708" d="M23.969,81.448A5.86,5.86,0,0,0,22.254,79.6a12.25,12.25,0,0,1-6.407,3.387,4.007,4.007,0,0,1,.139,1.076,3.577,3.577,0,0,1-1.122,2.861,4.288,4.288,0,0,1-2.924.975,17.3,17.3,0,0,1-1.978-.153,8,8,0,0,1-1.733-.39c-.04-.012-.081-.023-.13-.035v0l-.02-.009c-1.093-.272-4.15-.677-6.192.813A4.272,4.272,0,0,0,.5,89.876c-.043.1-.084.205-.121.315-.012.035-.026.069-.038.1A7.137,7.137,0,0,0,0,92.563H0c1.1.26,2.421.471,3.67.633v3.011H7.934V93.634c.084.006.13.009.139.012,1.51.119,2.881.182,4.124.191v2.375H16.46V93.385a13.065,13.065,0,0,0,2.351-.824,11.024,11.024,0,0,0,4.3-3.393,7.473,7.473,0,0,0,1.565-4.544A6.107,6.107,0,0,0,23.969,81.448Z" transform="translate(0 -56.577)" fill="#bebbe2"/>
      <path id="Trazado_8709" data-name="Trazado 8709" d="M1.216,29.672c2.23-1.628,5.371-1.388,6.9-1.061V23.619c.691.243,1.6.463,2.236.622a12.243,12.243,0,0,0,2.956.327,12.379,12.379,0,0,0,1.921-.153,15.2,15.2,0,0,0,1.808-.443c.1-.032.2-.064.3-.1l.069-.026a12.531,12.531,0,0,0,1.255-.541c.139-.069.269-.145.4-.22a14.318,14.318,0,0,0,2.4-1.84,10.675,10.675,0,0,0,1.278-1.614A10.346,10.346,0,0,0,24.3,13.872a10.2,10.2,0,0,0-1.021-4.61,10.9,10.9,0,0,0-2.719-3.479,11.992,11.992,0,0,0-3.8-2.175V0H12.5V2.869H8.233V0H3.97V3.381q-2.056.26-3.96.633V30.89A5.352,5.352,0,0,1,1.216,29.672Zm6.9-19.2h3.367a5.922,5.922,0,0,1,3.2.8,2.831,2.831,0,0,1,1.281,2.589,3.683,3.683,0,0,1-1.281,2.762,4.5,4.5,0,0,1-3.2,1.195,8.993,8.993,0,0,1-1.8-.174c-.382-.078-1.03-.191-1.562-.309C8.111,17.342,8.111,10.476,8.111,10.476Z" transform="translate(-0.007)" fill="#9996ba"/>
    </g>
    <path id="Trazado_8710" data-name="Trazado 8710" d="M110.855,18.246v22.23h-7.5V24.349H99.74v-6.1h11.115ZM106.627,5.78a4.608,4.608,0,0,1,2.331.61,4.881,4.881,0,0,1,1.721,1.634,4.157,4.157,0,0,1,.654,2.288,4.2,4.2,0,0,1-.654,2.268,4.844,4.844,0,0,1-1.721,1.657,4.71,4.71,0,0,1-5.6-.72,4.261,4.261,0,0,1-1.394-3.2,4.248,4.248,0,0,1,1.394-3.225A4.627,4.627,0,0,1,106.627,5.78Z" transform="translate(1643.108 1075.891)" fill="#bebbe2"/>
    <path id="Trazado_8711" data-name="Trazado 8711" d="M166.15,26.27v6.537h5.84V38.69h-5.84v6.233a4.278,4.278,0,0,0,.677,2.551,2.2,2.2,0,0,0,1.9.937,6.763,6.763,0,0,0,3.532-.96v5.84a5.681,5.681,0,0,1-2.2,1.678,8.484,8.484,0,0,1-3.682.72,7.83,7.83,0,0,1-3.835-.96,7.375,7.375,0,0,1-2.811-2.745,8.268,8.268,0,0,1-1.067-4.315V38.69H154.91V34.114a10.15,10.15,0,0,0,4.205-2.461,11.076,11.076,0,0,0,3.028-5.383Z" transform="translate(1603.895 1061.328)" fill="#bebbe2"/>
    <path id="Trazado_8712" data-name="Trazado 8712" d="M239.7,17.23V35.319l7.1-8.934h9.067l-8.978,9.588,9.371,12.639H246.8l-4.709-7.5-2.4,2.528v4.969h-7.5V17.23Z" transform="translate(1548.96 1067.754)" fill="#bebbe2"/>
    <path id="Trazado_8713" data-name="Trazado 8713" d="M334.187,17.23V35.319l7.1-8.934h9.068l-8.978,9.588,9.371,12.639h-9.458l-4.709-7.5-2.4,2.528v4.969h-7.5V17.23Z" transform="translate(1481.8 1067.754)" fill="#bebbe2"/>
    <path id="Trazado_8714" data-name="Trazado 8714" d="M419.9,46.62a8.185,8.185,0,0,1,3.422.764,8.48,8.48,0,0,1,2.768,1.941V47.277h7.5v22.23h-7.5V65.8a7.843,7.843,0,0,1-2.528,3.095,6.682,6.682,0,0,1-4.1,1.264A9.162,9.162,0,0,1,414.8,68.9a9.3,9.3,0,0,1-3.552-3.9,14.3,14.3,0,0,1-1.374-6.647,13.529,13.529,0,0,1,1.374-6.363A9.849,9.849,0,0,1,414.906,48,9.494,9.494,0,0,1,419.9,46.62Zm1.568,7.323a3.324,3.324,0,0,0-2.681,1.307,4.74,4.74,0,0,0-1.067,3.095,4.34,4.34,0,0,0,1.09,3.008,3.674,3.674,0,0,0,2.878,1.221,4.384,4.384,0,0,0,1.961-.5,4.625,4.625,0,0,0,1.721-1.524,4.483,4.483,0,0,0,.72-2.638V55.777a9.135,9.135,0,0,0-2.158-1.307A6.032,6.032,0,0,0,421.465,53.943Z" transform="translate(1422.678 1046.864)" fill="#bebbe2"/>
    <path id="Trazado_8715" data-name="Trazado 8715" d="M526.733,25.738a7.252,7.252,0,0,1,5.556,2.311q2.156,2.312,2.158,6.843v13.73h-7.5l-.043-12.553a2.712,2.712,0,0,0-.917-2.331,3.361,3.361,0,0,0-2.048-.677,3.283,3.283,0,0,0-2.048.631,6.7,6.7,0,0,0-1.437,1.5V48.622h-7.5V17.24h7.5V29.269a10.576,10.576,0,0,1,2.551-2.485A6.344,6.344,0,0,1,526.733,25.738Z" transform="translate(1349.405 1067.746)" fill="#bebbe2"/>
    <path id="Trazado_8716" data-name="Trazado 8716" d="M618.273,24.77a10.7,10.7,0,0,1,4.839,1.154,10.106,10.106,0,0,1,3.815,3.312,8.8,8.8,0,0,1,1.5,5.166,8.47,8.47,0,0,1-1.437,4.752,10.589,10.589,0,0,1-3.9,3.508,11.311,11.311,0,0,1-5.469,1.33,17.637,17.637,0,0,1-7.06-1.437V53.974H606.64V24.77Zm-7.714,3.705v10.5a18.886,18.886,0,0,0,3.075.894,17.933,17.933,0,0,0,3.858.414,7.139,7.139,0,0,0,5.122-1.721,5.533,5.533,0,0,0,1.808-4.162,5,5,0,0,0-1.024-3.182,6.756,6.756,0,0,0-2.681-2.028,8.765,8.765,0,0,0-3.532-.72Z" transform="translate(1282.821 1062.395)" fill="#9996ba"/>
    <path id="Trazado_8717" data-name="Trazado 8717" d="M701.532,48.88a9.082,9.082,0,0,1,3.815.894,10.06,10.06,0,0,1,3.335,2.461V49.314h3.575V71.108h-3.575V67.4a10.793,10.793,0,0,1-3.072,3.051,7.739,7.739,0,0,1-4.425,1.307,9.549,9.549,0,0,1-5.1-1.417A10.227,10.227,0,0,1,692.4,66.4a12.031,12.031,0,0,1-1.374-5.84,13.226,13.226,0,0,1,1.374-6.233,9.927,9.927,0,0,1,3.772-4.032A10.325,10.325,0,0,1,701.532,48.88Zm.656,3.488a6.743,6.743,0,0,0-4.009,1.177,7.833,7.833,0,0,0-2.551,3.028,9.062,9.062,0,0,0-.894,3.989,8.594,8.594,0,0,0,.871,3.858,7.017,7.017,0,0,0,2.461,2.811,6.553,6.553,0,0,0,3.682,1.047,6.3,6.3,0,0,0,3.575-1.047,7.249,7.249,0,0,0,2.485-2.9,8.884,8.884,0,0,0,.871-4.162l-.043-4.185a11.5,11.5,0,0,0-2.9-2.658A6.564,6.564,0,0,0,702.189,52.368Z" transform="translate(1222.839 1045.258)" fill="#9996ba"/>
    <path id="Trazado_8718" data-name="Trazado 8718" d="M783.762,50.39l7.627,16.041L798.8,50.39h4.272L787.03,82.645h-4.142l6.233-11.769L779.49,50.39Z" transform="translate(1159.965 1044.184)" fill="#9996ba"/>
  </g>
</svg>
