<svg xmlns="http://www.w3.org/2000/svg" width="336.083" height="51.947" viewBox="0 0 336.083 51.947">
  <g id="Grupo_18723" data-name="Grupo 18723" transform="translate(-7815.218 -590)">
    <g id="Grupo_18721" data-name="Grupo 18721" transform="translate(7877.921 602.069)">
      <path id="Trazado_8719" data-name="Trazado 8719" d="M31.954,34.16a2.3,2.3,0,0,1-1.658-.485,2.224,2.224,0,0,1-.445-1.536V8.731a2.1,2.1,0,0,1,.485-1.536,2.12,2.12,0,0,1,1.617-.526h9.905q5.66,0,8.328,2.385t2.668,7.115q0,4.69-2.668,7.075-2.628,2.345-8.328,2.345H38.018v6.549a2.1,2.1,0,0,1-.485,1.536,2.3,2.3,0,0,1-1.658.485Zm9.258-14.433a3.448,3.448,0,0,0,2.547-.889,3.529,3.529,0,0,0,.93-2.668,3.587,3.587,0,0,0-.93-2.709,3.447,3.447,0,0,0-2.547-.889H38.018v7.156Z" transform="translate(-29.852 -6.063)" fill="#9996ba"/>
      <path id="Trazado_8720" data-name="Trazado 8720" d="M49.733,30.848a8.028,8.028,0,0,1-6.1-2.426,9.847,9.847,0,0,1-2.264-6.913A11.282,11.282,0,0,1,42.9,15.566a10.391,10.391,0,0,1,4.407-3.921A14.717,14.717,0,0,1,53.9,10.23a19.313,19.313,0,0,1,5.417.687,15.9,15.9,0,0,1,4.366,1.9V28.988A1.33,1.33,0,0,1,63.4,30a1.843,1.843,0,0,1-1.132.243H58.142a1.573,1.573,0,0,1-.687-.121,1.222,1.222,0,0,1-.4-.485l-.526-1.213a6.838,6.838,0,0,1-2.83,1.819A11.34,11.34,0,0,1,49.733,30.848Zm3.032-5.5a3.652,3.652,0,0,0,2.466-.768,2.729,2.729,0,0,0,.889-2.183V16.092a4.534,4.534,0,0,0-1.941-.364,4.318,4.318,0,0,0-3.436,1.5,6.364,6.364,0,0,0-1.253,4.2Q49.49,25.35,52.765,25.35Z" transform="translate(-17.182 -2.144)" fill="#9996ba"/>
      <path id="Trazado_8721" data-name="Trazado 8721" d="M55.79,30.242a2.3,2.3,0,0,1-1.658-.485,2.1,2.1,0,0,1-.485-1.536V12.089a1.4,1.4,0,0,1,.243-.97,1.638,1.638,0,0,1,1.132-.283h4.164a1.324,1.324,0,0,1,.728.162.546.546,0,0,1,.323.485l.2,1.213a7.786,7.786,0,0,1,2.951-1.779,11.82,11.82,0,0,1,4.124-.687,7.514,7.514,0,0,1,5.3,1.86,6.918,6.918,0,0,1,2.021,5.417V28.22a2.1,2.1,0,0,1-.485,1.536,2.146,2.146,0,0,1-1.617.485H68.808a2.458,2.458,0,0,1-1.7-.485,2.1,2.1,0,0,1-.485-1.536V18.033a2.4,2.4,0,0,0-.526-1.739,2.265,2.265,0,0,0-1.658-.526,2.813,2.813,0,0,0-1.94.647,2.324,2.324,0,0,0-.687,1.779V28.22a2.1,2.1,0,0,1-.485,1.536,2.146,2.146,0,0,1-1.617.485Z" transform="translate(-3.664 -2.144)" fill="#9996ba"/>
      <path id="Trazado_8722" data-name="Trazado 8722" d="M76.72,30.848q-5.66,0-8.732-2.628t-3.073-7.641a10.28,10.28,0,0,1,1.415-5.417,9.439,9.439,0,0,1,4.083-3.639A14.683,14.683,0,0,1,76.8,10.23a17.863,17.863,0,0,1,4.69.526,10.367,10.367,0,0,1,3.436,1.617.84.84,0,0,1,.445.728,1.771,1.771,0,0,1-.323.849L83.391,16.82q-.283.566-.687.566a1.771,1.771,0,0,1-.768-.323,9.64,9.64,0,0,0-2.062-1.011,7.229,7.229,0,0,0-2.345-.323,4.354,4.354,0,0,0-3.275,1.294,5,5,0,0,0-1.213,3.558,4.812,4.812,0,0,0,1.253,3.558,4.732,4.732,0,0,0,3.436,1.213,7.136,7.136,0,0,0,2.345-.364,11.773,11.773,0,0,0,2.143-1.011,2.009,2.009,0,0,1,.809-.323q.364,0,.647.566l1.819,3.113a1.566,1.566,0,0,1,.2.647.88.88,0,0,1-.485.687,12.773,12.773,0,0,1-3.719,1.617A17.53,17.53,0,0,1,76.72,30.848Z" transform="translate(8.737 -2.144)" fill="#9996ba"/>
      <path id="Trazado_8723" data-name="Trazado 8723" d="M84.073,30.848a8.028,8.028,0,0,1-6.1-2.426A9.846,9.846,0,0,1,75.7,21.509a11.282,11.282,0,0,1,1.536-5.943,10.391,10.391,0,0,1,4.407-3.921,14.717,14.717,0,0,1,6.59-1.415,19.313,19.313,0,0,1,5.417.687,15.9,15.9,0,0,1,4.366,1.9V28.988A1.329,1.329,0,0,1,97.737,30a1.843,1.843,0,0,1-1.132.243H92.482a1.572,1.572,0,0,1-.687-.121,1.222,1.222,0,0,1-.4-.485l-.526-1.213a6.837,6.837,0,0,1-2.83,1.819A11.34,11.34,0,0,1,84.073,30.848Zm3.032-5.5a3.652,3.652,0,0,0,2.466-.768A2.728,2.728,0,0,0,90.46,22.4V16.092a4.533,4.533,0,0,0-1.94-.364,4.318,4.318,0,0,0-3.436,1.5,6.364,6.364,0,0,0-1.253,4.2Q83.83,25.35,87.1,25.35Z" transform="translate(20.61 -2.144)" fill="#9996ba"/>
      <path id="Trazado_8724" data-name="Trazado 8724" d="M109.9,32.624a1.077,1.077,0,0,1,.283.728.824.824,0,0,1-.242.606.979.979,0,0,1-.647.2h-6.266a3.31,3.31,0,0,1-.849-.081,1.84,1.84,0,0,1-.526-.445l-5.5-7.479v5.984a2.1,2.1,0,0,1-.485,1.536,2.3,2.3,0,0,1-1.658.485H90.089a2.3,2.3,0,0,1-1.658-.485,2.224,2.224,0,0,1-.445-1.536V8.731a2.1,2.1,0,0,1,.485-1.536,2.12,2.12,0,0,1,1.617-.526H94.01a2.182,2.182,0,0,1,1.658.526,2.1,2.1,0,0,1,.485,1.536V22.274l5.337-6.954a1.329,1.329,0,0,1,.526-.445,2.263,2.263,0,0,1,.849-.121h6.266a.744.744,0,0,1,.606.243.7.7,0,0,1,.243.566,1.076,1.076,0,0,1-.283.728l-6.913,7.924Z" transform="translate(34.127 -6.063)" fill="#9996ba"/>
      <path id="Trazado_8725" data-name="Trazado 8725" d="M110.832,30.848a15.4,15.4,0,0,1-6.064-1.132,9.407,9.407,0,0,1-4.164-3.4,9.634,9.634,0,0,1-1.536-5.539q0-5.134,2.911-7.843t8.368-2.709q5.337,0,8.085,2.668a9.561,9.561,0,0,1,2.789,7.318q0,2.021-1.779,2.021H106.748a3.084,3.084,0,0,0,1.294,2.668,7.018,7.018,0,0,0,4,.93,11.189,11.189,0,0,0,2.75-.283,11.474,11.474,0,0,0,2.264-.93,2.221,2.221,0,0,1,.647-.2c.242,0,.445.162.607.485l1.374,2.587a1.555,1.555,0,0,1,.2.606.88.88,0,0,1-.485.687,11.43,11.43,0,0,1-3.76,1.577A21.488,21.488,0,0,1,110.832,30.848Zm3.113-12.614a3.136,3.136,0,0,0-.891-2.385A3.728,3.728,0,0,0,110.387,15a3.77,3.77,0,0,0-2.708.889,3.017,3.017,0,0,0-.931,2.345Z" transform="translate(46.321 -2.144)" fill="#9996ba"/>
      <path id="Trazado_8726" data-name="Trazado 8726" d="M122.5,35.084a29.007,29.007,0,0,1-6.428-.687,14.46,14.46,0,0,1-4.892-2.021q-.687-.445-.687-.93a1.25,1.25,0,0,1,.242-.687l1.981-3.154c.216-.323.433-.485.647-.485a1.7,1.7,0,0,1,.689.283,14.859,14.859,0,0,0,3.394,1.375,14.06,14.06,0,0,0,3.76.526A5.329,5.329,0,0,0,124,28.737a1.97,1.97,0,0,0,.931-1.819,2.174,2.174,0,0,0-1.01-1.9,19.17,19.17,0,0,0-3.68-1.738,22.575,22.575,0,0,1-6.388-3.436,6.567,6.567,0,0,1-2.262-5.256,7.1,7.1,0,0,1,2.869-6.1,12.65,12.65,0,0,1,7.642-2.1,22.874,22.874,0,0,1,5.659.606A11.111,11.111,0,0,1,131.8,8.766q.687.526.687.97a1.207,1.207,0,0,1-.242.647l-1.981,3.153c-.244.323-.46.485-.647.485a1.7,1.7,0,0,1-.689-.283A9.947,9.947,0,0,0,123.35,12.2a5.171,5.171,0,0,0-2.668.566,2.008,2.008,0,0,0-.931,1.86,2.157,2.157,0,0,0,.485,1.455,4.621,4.621,0,0,0,1.294,1.011q.851.4,2.588,1.051l.769.283a27.423,27.423,0,0,1,4.688,2.264A7.211,7.211,0,0,1,132.2,23.32a7.643,7.643,0,0,1,.891,3.881,6.943,6.943,0,0,1-2.71,5.741Q127.716,35.085,122.5,35.084Z" transform="translate(58.898 -6.38)" fill="#9996ba"/>
      <path id="Trazado_8727" data-name="Trazado 8727" d="M128.859,29.924a1.772,1.772,0,0,1-.931-.2,1.3,1.3,0,0,1-.483-.809L122.23,11.448a1.269,1.269,0,0,1-.082-.364c0-.377.271-.566.809-.566h5.337a1.185,1.185,0,0,1,.767.2.834.834,0,0,1,.323.566l2.185,9.177,2.747-7.4a1.691,1.691,0,0,1,.405-.647,1.269,1.269,0,0,1,.809-.2h2.546a1.1,1.1,0,0,1,.769.2,1.416,1.416,0,0,1,.445.647l2.708,7.4,2.224-9.177a1.115,1.115,0,0,1,.324-.566,1.02,1.02,0,0,1,.727-.2h5.377q.81,0,.809.566a1.323,1.323,0,0,1-.08.364l-5.255,17.465a1.315,1.315,0,0,1-.485.809,1.552,1.552,0,0,1-.891.2h-3.962a1.46,1.46,0,0,1-.849-.2,1.88,1.88,0,0,1-.485-.809L136.784,21.6l-2.67,7.317a1.17,1.17,0,0,1-1.334,1.011Z" transform="translate(71.722 -1.826)" fill="#9996ba"/>
      <path id="Trazado_8728" data-name="Trazado 8728" d="M145.366,30.848a8.026,8.026,0,0,1-6.1-2.426A9.842,9.842,0,0,1,137,21.509a11.293,11.293,0,0,1,1.535-5.943,10.4,10.4,0,0,1,4.407-3.921,14.718,14.718,0,0,1,6.589-1.415,19.312,19.312,0,0,1,5.417.687,15.909,15.909,0,0,1,4.367,1.9V28.988A1.328,1.328,0,0,1,159.029,30a1.842,1.842,0,0,1-1.132.243h-4.123a1.572,1.572,0,0,1-.687-.121,1.216,1.216,0,0,1-.4-.485l-.527-1.213a6.835,6.835,0,0,1-2.829,1.819A11.337,11.337,0,0,1,145.366,30.848Zm3.031-5.5a3.648,3.648,0,0,0,2.466-.768,2.724,2.724,0,0,0,.891-2.183V16.092a4.537,4.537,0,0,0-1.941-.364,4.32,4.32,0,0,0-3.436,1.5,6.361,6.361,0,0,0-1.254,4.2Q145.122,25.35,148.4,25.35Z" transform="translate(88.064 -2.144)" fill="#9996ba"/>
      <path id="Trazado_8729" data-name="Trazado 8729" d="M151.382,38.408a2.3,2.3,0,0,1-1.657-.485,2.228,2.228,0,0,1-.445-1.536V13.221a16.032,16.032,0,0,1,4.569-2.143,19.358,19.358,0,0,1,5.741-.849q12.209,0,12.21,10.35a10.564,10.564,0,0,1-2.588,7.479,9.485,9.485,0,0,1-7.318,2.789,10.291,10.291,0,0,1-2.586-.323,6.375,6.375,0,0,1-2.023-.889v6.751a2.1,2.1,0,0,1-.485,1.536,2.3,2.3,0,0,1-1.657.485Zm8.774-13.018a2.883,2.883,0,0,0,2.588-1.294,6.327,6.327,0,0,0,.889-3.558,5.135,5.135,0,0,0-1.05-3.679,4.111,4.111,0,0,0-3.155-1.092,5.409,5.409,0,0,0-2.182.364V22.56a2.757,2.757,0,0,0,.769,2.1A2.992,2.992,0,0,0,160.155,25.39Z" transform="translate(101.581 -2.144)" fill="#9996ba"/>
    </g>
    <g id="Grupo_18722" data-name="Grupo 18722" transform="translate(7815.218 590)" style="mix-blend-mode: luminosity;isolation: isolate">
      <path id="Trazado_8730" data-name="Trazado 8730" d="M9.221,8.754A6.86,6.86,0,1,1,22.825,7.5v8.458q1.422-.1,2.886-.1,1.406,0,2.774.093V7.5a6.86,6.86,0,1,1,13.6,1.259L40.233,18.7C46.6,21.478,51.423,26.309,51.423,32.38v3.673c0,4.993-3.3,9.173-7.92,11.994a34.6,34.6,0,0,1-17.791,4.534A34.6,34.6,0,0,1,7.92,48.048C3.3,45.226,0,41.046,0,36.053V32.38c0-6.039,4.768-10.852,11.086-13.639ZM37.854,20,40.026,8.369A4.761,4.761,0,1,0,30.584,7.5V18.258q-1.033-.133-2.1-.209-1.365-.1-2.774-.1-1.465,0-2.886.107-1.065.079-2.1.215V7.5a4.761,4.761,0,1,0-9.442.874l2.18,11.672C6.65,22.572,2.1,27.151,2.1,32.38v3.673c0,7.969,10.572,14.43,23.612,14.43s23.613-6.46,23.613-14.43V32.38C49.324,27.124,44.726,22.525,37.854,20Z" transform="translate(0 -0.635)" fill="#633001" fill-rule="evenodd"/>
      <path id="Trazado_8731" data-name="Trazado 8731" d="M48.224,19.421c0,7.969-10.572,14.43-23.613,14.43S1,27.391,1,19.421V15.748H48.224Z" transform="translate(1.099 15.998)" fill="#fedc90"/>
      <path id="Trazado_8732" data-name="Trazado 8732" d="M10.185,7.269A4.761,4.761,0,1,1,19.627,6.4V17.173a38.738,38.738,0,0,1,9.858-.015V6.4a4.761,4.761,0,1,1,9.442.874L36.754,18.9c6.872,2.523,11.47,7.122,11.47,12.378,0,7.969-10.572,14.43-23.613,14.43S1,39.25,1,31.281c0-5.229,4.551-9.809,11.365-12.34Z" transform="translate(1.099 0.465)" fill="#d1884f" fill-rule="evenodd"/>
      <path id="Trazado_8733" data-name="Trazado 8733" d="M11.867,17.31c0,2.174-1.175,3.936-2.624,3.936S6.62,19.484,6.62,17.31s1.175-3.935,2.624-3.935S11.867,15.137,11.867,17.31Z" transform="translate(7.286 13.386)" fill="#633001"/>
      <path id="Trazado_8734" data-name="Trazado 8734" d="M20.485,17.31c0,2.174-1.175,3.936-2.624,3.936s-2.624-1.762-2.624-3.936,1.175-3.935,2.624-3.935S20.485,15.137,20.485,17.31Z" transform="translate(16.77 13.386)" fill="#633001"/>
    </g>
  </g>
</svg>
