<svg xmlns="http://www.w3.org/2000/svg" width="247.329" height="45.444" viewBox="0 0 247.329 45.444">
  <g id="Grupo_18726" data-name="Grupo 18726" transform="translate(-7496.093 -599.875)">
    <g id="Grupo_18724" data-name="Grupo 18724" transform="translate(7564.203 611.627)">
      <path id="Trazado_8735" data-name="Trazado 8735" d="M154.76,20.211c-1.285-.847-2.7-1.45-4.04-2.2a17.222,17.222,0,0,1-2.549-1.544,2.564,2.564,0,0,1,.321-4.03c1.926-1.28,5.115-.565,5.456,2.053a.106.106,0,0,0,.113.094h2.908a.106.106,0,0,0,.113-.132,5.721,5.721,0,0,0-2.133-4.275,6.767,6.767,0,0,0-4.117-1.412c-7.683,0-8.382,8.116-4.248,10.677.472.3,4.531,2.335,5.967,3.22a2.94,2.94,0,0,1,1.264,3.785,3.721,3.721,0,0,1-3.511,1.883,3.473,3.473,0,0,1-3.286-2.316,4.1,4.1,0,0,1-.113-.923.122.122,0,0,0-.113-.113h-3.152a.122.122,0,0,0-.113.113c0,2.279.567,3.54,2.114,4.689a7.589,7.589,0,0,0,4.682,1.544c4.3,0,6.532-2.429,6.984-4.953A5.83,5.83,0,0,0,154.76,20.211Z" transform="translate(-4.385 -8.762)" fill="#9996ba"/>
      <path id="Trazado_8736" data-name="Trazado 8736" d="M61.261,9.047H58.335a.128.128,0,0,0-.113.075l-2.586,8.512a.118.118,0,0,1-.227,0L52.822,9.122a.1.1,0,0,0-.113-.075H47.895a.122.122,0,0,0-.113.113V30.891a.122.122,0,0,0,.113.113h3.153a.122.122,0,0,0,.113-.113V14.376a.117.117,0,0,1,.227-.038l2.605,8.568.189.6a.1.1,0,0,0,.113.075h2.417a.128.128,0,0,0,.113-.075l.189-.6,2.605-8.568a.116.116,0,0,1,.227.038V30.891a.122.122,0,0,0,.113.113h3.153a.122.122,0,0,0,.113-.113V9.16a.122.122,0,0,0-.113-.113Z" transform="translate(-47.781 -8.632)" fill="#9996ba"/>
      <path id="Trazado_8737" data-name="Trazado 8737" d="M121.323,9.047a.128.128,0,0,0-.113.075l-2.585,8.512a.118.118,0,0,1-.227,0L115.81,9.122a.1.1,0,0,0-.113-.075h-4.8a.122.122,0,0,0-.113.113V30.891A.122.122,0,0,0,110.9,31h3.154a.122.122,0,0,0,.113-.113V14.376a.118.118,0,0,1,.227-.038l2.6,8.568.189.6a.1.1,0,0,0,.113.075h2.417a.128.128,0,0,0,.113-.075l.189-.6,2.606-8.568a.116.116,0,0,1,.227.038V30.891a.122.122,0,0,0,.113.113h3.152a.122.122,0,0,0,.113-.113V9.16a.122.122,0,0,0-.113-.113Z" transform="translate(-19.223 -8.632)" fill="#9996ba"/>
      <path id="Trazado_8738" data-name="Trazado 8738" d="M94.735,9.047H79.84a.122.122,0,0,0-.113.113v2.712a.122.122,0,0,0,.113.113H85.6V30.891a.122.122,0,0,0,.113.113h3.153a.122.122,0,0,0,.113-.113V11.985h5.758a.122.122,0,0,0,.113-.113V9.16A.109.109,0,0,0,94.735,9.047Z" transform="translate(-33.302 -8.632)" fill="#9996ba"/>
      <path id="Trazado_8739" data-name="Trazado 8739" d="M106.974,31.027h2.869a.121.121,0,0,0,.113-.151L104.028,9.07a.1.1,0,0,0-.113-.075H99.8a.128.128,0,0,0-.113.075L93.758,30.876a.121.121,0,0,0,.113.151h2.87a.128.128,0,0,0,.113-.075l1.718-6.346a.1.1,0,0,1,.113-.075h6.344a.128.128,0,0,1,.113.075l1.718,6.346A.155.155,0,0,0,106.974,31.027Zm-7.533-9.6,2.3-8.493a.118.118,0,0,1,.227,0l2.3,8.493a.121.121,0,0,1-.113.151H99.554A.121.121,0,0,1,99.441,21.423Z" transform="translate(-26.944 -8.656)" fill="#9996ba"/>
      <path id="Trazado_8740" data-name="Trazado 8740" d="M140.647,31.027h2.869a.121.121,0,0,0,.113-.151L137.7,9.07a.1.1,0,0,0-.113-.075h-4.116a.128.128,0,0,0-.113.075l-5.928,21.806a.121.121,0,0,0,.113.151h2.87a.128.128,0,0,0,.113-.075l1.718-6.346a.1.1,0,0,1,.113-.075H138.7a.128.128,0,0,1,.113.075l1.718,6.346A.128.128,0,0,0,140.647,31.027Zm-7.534-9.6,2.3-8.493a.118.118,0,0,1,.227,0l2.3,8.493a.121.121,0,0,1-.113.151h-4.607A.121.121,0,0,1,133.113,21.423Z" transform="translate(-11.682 -8.656)" fill="#9996ba"/>
      <path id="Trazado_8741" data-name="Trazado 8741" d="M68.27,27.778V21.036a.122.122,0,0,1,.113-.113h8.4a.122.122,0,0,0,.113-.113V18.1a.122.122,0,0,0-.113-.113h-8.4a.122.122,0,0,1-.113-.113V12.11A.122.122,0,0,1,68.383,12h9.553a.122.122,0,0,0,.113-.113V9.173a.122.122,0,0,0-.113-.113H65a.122.122,0,0,0-.113.113V30.885A.122.122,0,0,0,65,31H78.333a.122.122,0,0,0,.113-.113V28.023a.122.122,0,0,0-.113-.113H68.364A.125.125,0,0,1,68.27,27.778Z" transform="translate(-40.026 -8.627)" fill="#9996ba"/>
      <path id="Trazado_8742" data-name="Trazado 8742" d="M176.432,30.809,165.52,19.567a.114.114,0,0,1,0-.151l9.818-10.169a.109.109,0,0,0-.076-.188h-4.021a.1.1,0,0,0-.076.038l-8.326,8.625a.109.109,0,0,1-.189-.075V9.173a.122.122,0,0,0-.113-.113h-3.154a.122.122,0,0,0-.113.113V30.9a.122.122,0,0,0,.113.113h3.154a.122.122,0,0,0,.113-.113V21.338c0-.094.132-.151.189-.075l9.439,9.717a.143.143,0,0,0,.076.038h4.021C176.451,31,176.508,30.866,176.432,30.809Z" transform="translate(2.751 -8.627)" fill="#9996ba"/>
    </g>
    <g id="Grupo_18725" data-name="Grupo 18725" transform="translate(7496.218 600)" style="mix-blend-mode: luminosity;isolation: isolate">
      <path id="Trazado_8743" data-name="Trazado 8743" d="M38.911,1,19.824,15.123,23.374,6.8Z" transform="translate(7.532 -1)" fill="#e17726" stroke="#e17726" stroke-linecap="round" stroke-linejoin="round" stroke-width="0.25"/>
      <path id="Trazado_8744" data-name="Trazado 8744" d="M2.663,1,21.58,15.255,18.2,6.8Z" transform="translate(-0.246 -1)" fill="#e27625" stroke="#e27625" stroke-linecap="round" stroke-linejoin="round" stroke-width="0.25"/>
      <path id="Trazado_8745" data-name="Trazado 8745" d="M29.813,23.533l-5.079,7.758,10.875,2.994L38.724,23.7Z" transform="translate(9.758 9.213)" fill="#e27625" stroke="#e27625" stroke-linecap="round" stroke-linejoin="round" stroke-width="0.25"/>
      <path id="Trazado_8746" data-name="Trazado 8746" d="M1.273,23.7l3.1,10.583,10.856-2.994-5.06-7.758Z" transform="translate(-0.876 9.213)" fill="#e27625" stroke="#e27625" stroke-linecap="round" stroke-linejoin="round" stroke-width="0.25"/>
      <path id="Trazado_8747" data-name="Trazado 8747" d="M11.412,16.553,8.392,21.11l10.761.49-.359-11.581Z" transform="translate(2.35 3.088)" fill="#e27625" stroke="#e27625" stroke-linecap="round" stroke-linejoin="round" stroke-width="0.25"/>
      <path id="Trazado_8748" data-name="Trazado 8748" d="M27.564,16.594,20.069,9.928l-.245,11.713,10.761-.49Z" transform="translate(7.532 3.047)" fill="#e27625" stroke="#e27625" stroke-linecap="round" stroke-linejoin="round" stroke-width="0.25"/>
      <path id="Trazado_8749" data-name="Trazado 8749" d="M10.873,31.215l6.513-3.145L11.78,23.7Z" transform="translate(3.475 9.29)" fill="#e27625" stroke="#e27625" stroke-linecap="round" stroke-linejoin="round" stroke-width="0.25"/>
      <path id="Trazado_8750" data-name="Trazado 8750" d="M20.266,28.071l6.494,3.145L25.873,23.7Z" transform="translate(7.732 9.29)" fill="#e27625" stroke="#e27625" stroke-linecap="round" stroke-linejoin="round" stroke-width="0.25"/>
      <path id="Trazado_8751" data-name="Trazado 8751" d="M26.76,29.853l-6.494-3.145.529,4.218-.057,1.789Z" transform="translate(7.732 10.652)" fill="#d5bfb2" stroke="#d5bfb2" stroke-linecap="round" stroke-linejoin="round" stroke-width="0.25"/>
      <path id="Trazado_8752" data-name="Trazado 8752" d="M10.873,29.853l6.041,2.862-.038-1.789.51-4.218Z" transform="translate(3.475 10.652)" fill="#d5bfb2" stroke="#d5bfb2" stroke-linecap="round" stroke-linejoin="round" stroke-width="0.25"/>
      <path id="Trazado_8753" data-name="Trazado 8753" d="M16.792,22.824l-5.4-1.582,3.814-1.751Z" transform="translate(3.711 7.381)" fill="#233447" stroke="#233447" stroke-linecap="round" stroke-linejoin="round" stroke-width="0.25"/>
      <path id="Trazado_8754" data-name="Trazado 8754" d="M20.513,22.824,22.1,19.491l3.833,1.751Z" transform="translate(7.844 7.381)" fill="#233447" stroke="#233447" stroke-linecap="round" stroke-linejoin="round" stroke-width="0.25"/>
      <path id="Trazado_8755" data-name="Trazado 8755" d="M12.451,31.292l.944-7.758-6,.17Z" transform="translate(1.897 9.213)" fill="#cc6228" stroke="#cc6228" stroke-linecap="round" stroke-linejoin="round" stroke-width="0.25"/>
      <path id="Trazado_8756" data-name="Trazado 8756" d="M24.1,23.533l.925,7.758L30.1,23.7Z" transform="translate(9.469 9.213)" fill="#cc6228" stroke="#cc6228" stroke-linecap="round" stroke-linejoin="round" stroke-width="0.25"/>
      <path id="Trazado_8757" data-name="Trazado 8757" d="M30.585,17.651l-10.761.49,1,5.518,1.586-3.333,3.833,1.751Z" transform="translate(7.532 6.547)" fill="#cc6228" stroke="#cc6228" stroke-linecap="round" stroke-linejoin="round" stroke-width="0.25"/>
      <path id="Trazado_8758" data-name="Trazado 8758" d="M12.753,22.076l3.814-1.751,1.586,3.333,1-5.518-10.761-.49Z" transform="translate(2.35 6.547)" fill="#cc6228" stroke="#cc6228" stroke-linecap="round" stroke-linejoin="round" stroke-width="0.25"/>
      <path id="Trazado_8759" data-name="Trazado 8759" d="M8.392,17.651,12.9,26.445l-.151-4.369Z" transform="translate(2.35 6.547)" fill="#e27525" stroke="#e27525" stroke-linecap="round" stroke-linejoin="round" stroke-width="0.25"/>
      <path id="Trazado_8760" data-name="Trazado 8760" d="M24.294,22.076l-.17,4.369,4.512-8.794Z" transform="translate(9.481 6.547)" fill="#e27525" stroke="#e27525" stroke-linecap="round" stroke-linejoin="round" stroke-width="0.25"/>
      <path id="Trazado_8761" data-name="Trazado 8761" d="M16.109,17.987l-1,5.518,1.265,6.515.283-8.587Z" transform="translate(5.395 6.7)" fill="#e27525" stroke="#e27525" stroke-linecap="round" stroke-linejoin="round" stroke-width="0.25"/>
      <path id="Trazado_8762" data-name="Trazado 8762" d="M19.989,17.987l-.529,3.427.264,8.606,1.265-6.515Z" transform="translate(7.367 6.7)" fill="#e27525" stroke="#e27525" stroke-linecap="round" stroke-linejoin="round" stroke-width="0.25"/>
      <path id="Trazado_8763" data-name="Trazado 8763" d="M20.907,22.278l-1.265,6.515.906.64,5.607-4.369.17-4.369Z" transform="translate(7.45 7.927)" fill="#f5841f" stroke="#f5841f" stroke-linecap="round" stroke-linejoin="round" stroke-width="0.25"/>
      <path id="Trazado_8764" data-name="Trazado 8764" d="M11.393,20.7l.151,4.369,5.607,4.369.906-.64-1.265-6.515Z" transform="translate(3.711 7.927)" fill="#f5841f" stroke="#f5841f" stroke-linecap="round" stroke-linejoin="round" stroke-width="0.25"/>
      <path id="Trazado_8765" data-name="Trazado 8765" d="M25,31.734l.057-1.789-.491-.414H17.349l-.472.414.038,1.789-6.041-2.862L12.988,30.6l4.286,2.956h7.344l4.3-2.956,2.1-1.732Z" transform="translate(3.475 11.633)" fill="#c0ac9d" stroke="#c0ac9d" stroke-linecap="round" stroke-linejoin="round" stroke-width="0.25"/>
      <path id="Trazado_8766" data-name="Trazado 8766" d="M22.651,26.908l-.906-.64H16.42l-.906.64L15,31.126l.472-.414h7.212l.491.414Z" transform="translate(5.347 10.453)" fill="#161616" stroke="#161616" stroke-linecap="round" stroke-linejoin="round" stroke-width="0.25"/>
      <path id="Trazado_8767" data-name="Trazado 8767" d="M39.523,16.046l1.6-7.8L38.711,1,20.266,14.652l7.1,5.988,10.025,2.919L39.6,20.98l-.963-.7,1.529-1.393-1.17-.9,1.529-1.168Z" transform="translate(7.732 -1)" fill="#763e1a" stroke="#763e1a" stroke-linecap="round" stroke-linejoin="round" stroke-width="0.25"/>
      <path id="Trazado_8768" data-name="Trazado 8768" d="M1,8.25l1.624,7.8-1.038.772,1.548,1.168-1.171.9,1.529,1.393-.963.7,2.209,2.58,10.025-2.919,7.1-5.988L3.417,1Z" transform="translate(-1 -1)" fill="#763e1a" stroke="#763e1a" stroke-linecap="round" stroke-linejoin="round" stroke-width="0.25"/>
      <path id="Trazado_8769" data-name="Trazado 8769" d="M35.641,17.434,25.616,14.515l3.021,4.557-4.512,8.794,5.966-.075H39Z" transform="translate(9.481 5.126)" fill="#f5841f" stroke="#f5841f" stroke-linecap="round" stroke-linejoin="round" stroke-width="0.25"/>
      <path id="Trazado_8770" data-name="Trazado 8770" d="M14.639,14.515,4.614,17.434,1.273,27.791h8.892l5.966.075-4.512-8.794Z" transform="translate(-0.876 5.126)" fill="#f5841f" stroke="#f5841f" stroke-linecap="round" stroke-linejoin="round" stroke-width="0.25"/>
      <path id="Trazado_8771" data-name="Trazado 8771" d="M22.756,23.878,23.4,12.843l2.907-7.852H13.355l2.907,7.852L16.9,23.878l.245,3.465.019,8.568h5.324l.019-8.568Z" transform="translate(4.6 0.809)" fill="#f5841f" stroke="#f5841f" stroke-linecap="round" stroke-linejoin="round" stroke-width="0.25"/>
    </g>
  </g>
</svg>
