<svg xmlns="http://www.w3.org/2000/svg" width="68" height="68" viewBox="0 0 68 68">
  <g id="Grupo_18486" data-name="Grupo 18486" transform="translate(-140 -4350)">
    <rect id="Rectángulo_608" data-name="Rectángulo 608" width="68" height="68" rx="20" transform="translate(140 4350)" fill="#ff4365"/>
    <g id="_5fac2e36fe880a06239cc888_icon-spec-2-2-crypto-template" data-name="5fac2e36fe880a06239cc888_icon-spec-2-2-crypto-template" transform="translate(156 4365.99)">
      <path id="Trazado_8235" data-name="Trazado 8235" d="M18.211,36.432a5.472,5.472,0,0,1-3.868-1.593l-1.33-1.33a2.74,2.74,0,0,0-1.938-.8H9.2a5.491,5.491,0,0,1-5.484-5.484V25.354a2.748,2.748,0,0,0-.8-1.94L1.612,22.108a5.491,5.491,0,0,1-.02-7.753l1.33-1.331a2.74,2.74,0,0,0,.8-1.938V9.218A5.491,5.491,0,0,1,9.2,3.732h1.872a2.722,2.722,0,0,0,1.938-.8l1.309-1.306a5.489,5.489,0,0,1,7.753-.02l1.33,1.33a2.727,2.727,0,0,0,1.936.8h1.872A5.491,5.491,0,0,1,32.7,9.218v1.87a2.748,2.748,0,0,0,.8,1.94l1.308,1.308a5.481,5.481,0,0,1,.036,7.735c-.018.018-.035.038-.053.055L33.5,23.418a2.74,2.74,0,0,0-.8,1.938v1.87a5.491,5.491,0,0,1-5.484,5.484H25.343a2.74,2.74,0,0,0-1.938.8L22.1,34.819a5.461,5.461,0,0,1-3.885,1.614" fill="#fff" opacity="0.4"/>
      <path id="Trazado_8236" data-name="Trazado 8236" d="M8.936,23.43H8.79a.382.382,0,0,1-.118.015.829.829,0,0,1-.558-.176.515.515,0,0,1-.191-.411.768.768,0,0,1,.323-.558,5.585,5.585,0,0,0,1.587-1.073,4.679,4.679,0,0,0,1.043-1.557,3.965,3.965,0,0,1-.647.176,4.9,4.9,0,0,1-.661.044,3.364,3.364,0,0,1-1.352-.25,3.109,3.109,0,0,1-.94-.632,2.681,2.681,0,0,1-.573-.882,2.783,2.783,0,0,1-.176-.955,2.874,2.874,0,0,1,.22-1.087,2.975,2.975,0,0,1,.632-.984,3.163,3.163,0,0,1,1.043-.705,3.568,3.568,0,0,1,1.455-.279,2.8,2.8,0,0,1,1.322.294,2.611,2.611,0,0,1,.911.779,3.1,3.1,0,0,1,.514,1.087,4.2,4.2,0,0,1,.132,1.264,6.357,6.357,0,0,1-.264,1.837,6,6,0,0,1-.749,1.631,6.325,6.325,0,0,1-1.2,1.367A7.324,7.324,0,0,1,8.936,23.43Zm.617-4.819a2.339,2.339,0,0,0,.911-.191,3.63,3.63,0,0,0,.852-.485q-.029,0-.015-.132a1.423,1.423,0,0,0,.029-.279,4.19,4.19,0,0,0-.073-.793,2.062,2.062,0,0,0-.25-.691,1.329,1.329,0,0,0-1.2-.676,1.751,1.751,0,0,0-.705.147,1.9,1.9,0,0,0-.588.382,1.714,1.714,0,0,0-.4.573,1.786,1.786,0,0,0-.147.72,1.33,1.33,0,0,0,.132.6,1.761,1.761,0,0,0,.367.441,1.6,1.6,0,0,0,.5.294A2.035,2.035,0,0,0,9.554,18.611Z" fill="#fff"/>
      <path id="Trazado_8237" data-name="Trazado 8237" d="M16.045,23.43H15.9a.382.382,0,0,1-.118.015.829.829,0,0,1-.558-.176.515.515,0,0,1-.191-.411.768.768,0,0,1,.323-.558,5.585,5.585,0,0,0,1.587-1.073,4.68,4.68,0,0,0,1.043-1.557,3.965,3.965,0,0,1-.646.176,4.9,4.9,0,0,1-.661.044,3.364,3.364,0,0,1-1.352-.25,3.11,3.11,0,0,1-.94-.632,2.682,2.682,0,0,1-.573-.882,2.784,2.784,0,0,1-.176-.955,2.875,2.875,0,0,1,.22-1.087,2.975,2.975,0,0,1,.632-.984,3.163,3.163,0,0,1,1.043-.705,3.568,3.568,0,0,1,1.455-.279,2.8,2.8,0,0,1,1.322.294,2.61,2.61,0,0,1,.911.779,3.1,3.1,0,0,1,.514,1.087,4.206,4.206,0,0,1,.132,1.264,6.357,6.357,0,0,1-.264,1.837,6,6,0,0,1-.749,1.631,6.327,6.327,0,0,1-1.2,1.367A7.324,7.324,0,0,1,16.045,23.43Zm.617-4.819a2.339,2.339,0,0,0,.911-.191,3.628,3.628,0,0,0,.852-.485q-.029,0-.015-.132a1.424,1.424,0,0,0,.029-.279,4.19,4.19,0,0,0-.074-.793,2.059,2.059,0,0,0-.25-.691,1.329,1.329,0,0,0-1.2-.676,1.751,1.751,0,0,0-.705.147,1.9,1.9,0,0,0-.588.382,1.715,1.715,0,0,0-.4.573,1.787,1.787,0,0,0-.147.72,1.33,1.33,0,0,0,.132.6,1.761,1.761,0,0,0,.367.441,1.6,1.6,0,0,0,.5.294A2.035,2.035,0,0,0,16.662,18.611Z" fill="#fff"/>
      <path id="Trazado_8238" data-name="Trazado 8238" d="M27.839,13.145a.786.786,0,0,1,.558-.206.667.667,0,0,1,.47.176.557.557,0,0,1,.206.441.747.747,0,0,1-.015.147,1.036,1.036,0,0,1-.044.132l-3.159,4.54-3.379,4.834a.639.639,0,0,1-.309.235,1.029,1.029,0,0,1-.323.059.762.762,0,0,1-.485-.162.547.547,0,0,1-.191-.441A.745.745,0,0,1,21.2,22.7a.822.822,0,0,1,.1-.235q.882-1.234,1.675-2.38T24.563,17.8q.779-1.117,1.587-2.263t1.675-2.38ZM20.449,15.29a2.294,2.294,0,0,1,.235-.94,2.18,2.18,0,0,1,.514-.661,1.9,1.9,0,0,1,.705-.382,2.5,2.5,0,0,1,.794-.132,2.539,2.539,0,0,1,.808.132,2.086,2.086,0,0,1,.705.4,1.913,1.913,0,0,1,.514.661,1.947,1.947,0,0,1,.191.882,2.008,2.008,0,0,1-.206.911,2.226,2.226,0,0,1-1.249,1.175,2.312,2.312,0,0,1-.852.162,2.116,2.116,0,0,1-.764-.147,2.247,2.247,0,0,1-.676-.426,2.456,2.456,0,0,1-.5-.691A2.552,2.552,0,0,1,20.449,15.29ZM25.5,21.241a2.31,2.31,0,0,1,.22-.911,2.005,2.005,0,0,1,.514-.646,1.919,1.919,0,0,1,.691-.382,2.36,2.36,0,0,1,1.557,0,2.086,2.086,0,0,1,.705.4,1.808,1.808,0,0,1,.514.632,1.856,1.856,0,0,1,.191.867,2.174,2.174,0,0,1-.191.926,1.955,1.955,0,0,1-.485.691,2.126,2.126,0,0,1-.72.426,2.35,2.35,0,0,1-.823.147,2.156,2.156,0,0,1-.735-.132,1.94,1.94,0,0,1-.676-.382,2.179,2.179,0,0,1-.514-.661A2.614,2.614,0,0,1,25.5,21.241Zm-2.865-6.8a.543.543,0,0,0-.309.088.688.688,0,0,0-.206.206,1.076,1.076,0,0,0-.147.279q-.044.147-.074.294a.967.967,0,0,0,.279.661.782.782,0,0,0,.529.206.738.738,0,0,0,.514-.22.836.836,0,0,0,.25-.661.8.8,0,0,0-.264-.6A.788.788,0,0,0,22.638,14.438Zm5.054,6.024a.6.6,0,0,0-.544.25,1.5,1.5,0,0,0-.191.529,1.035,1.035,0,0,0,.264.646.709.709,0,0,0,1,0,.844.844,0,0,0,.235-.646.721.721,0,0,0-.235-.573A.782.782,0,0,0,27.692,20.462Z" fill="#fff"/>
    </g>
  </g>
</svg>
