<svg xmlns="http://www.w3.org/2000/svg" width="68" height="68" viewBox="0 0 68 68">
  <g id="Grupo_18893" data-name="Grupo 18893" transform="translate(-1247 -1532)">
    <rect id="Rectángulo_604" data-name="Rectángulo 604" width="68" height="68" rx="20" transform="translate(1247 1532)" fill="#ff4365"/>
    <g id="_609b26d9c54c3426db73db70_icons-icon" data-name="609b26d9c54c3426db73db70_icons-icon" transform="translate(1257 1541.146)">
      <path id="Trazado_8671" data-name="Trazado 8671" d="M21.1,14.048a5.6,5.6,0,1,0-5.6-5.6A5.6,5.6,0,0,0,21.1,14.048Z" transform="translate(3.29)" fill="#fff"/>
      <path id="Trazado_8672" data-name="Trazado 8672" d="M21.1,41.048a5.6,5.6,0,1,0-5.6-5.6A5.6,5.6,0,0,0,21.1,41.048Z" transform="translate(3.29 6.581)" fill="#fff"/>
      <path id="Trazado_8673" data-name="Trazado 8673" d="M34.6,27.548a5.6,5.6,0,1,0-5.6-5.6A5.6,5.6,0,0,0,34.6,27.548Z" transform="translate(6.581 3.29)" fill="#fff"/>
      <path id="Trazado_8674" data-name="Trazado 8674" d="M7.6,27.548a5.6,5.6,0,1,0-5.6-5.6A5.6,5.6,0,0,0,7.6,27.548Z" transform="translate(0 3.29)" fill="#fff"/>
      <path id="Trazado_8675" data-name="Trazado 8675" d="M26.354,32.056a.468.468,0,0,0-.159.631l1.4,2.425a.466.466,0,0,0,.647.164A18.742,18.742,0,0,0,34.419,29.1a.463.463,0,0,0,.054-.358.468.468,0,0,0-.218-.289l-2.425-1.4a.468.468,0,0,0-.631.159,15.009,15.009,0,0,1-4.845,4.845Z" transform="translate(5.882 5.883)" fill="#fff"/>
      <path id="Trazado_8676" data-name="Trazado 8676" d="M31.2,16.138a.469.469,0,0,0,.631.159l2.425-1.4a.469.469,0,0,0,.228-.474.464.464,0,0,0-.064-.174,18.74,18.74,0,0,0-6.175-6.173.463.463,0,0,0-.358-.054.468.468,0,0,0-.289.218l-1.4,2.425a.468.468,0,0,0,.159.631A15.008,15.008,0,0,1,31.2,16.138Z" transform="translate(5.882 1.255)" fill="#fff"/>
      <path id="Trazado_8677" data-name="Trazado 8677" d="M7.218,14.247a.463.463,0,0,0-.054.358.467.467,0,0,0,.218.289l2.425,1.4a.468.468,0,0,0,.638-.159,15.009,15.009,0,0,1,4.85-4.851.468.468,0,0,0,.159-.631l-1.4-2.425a.466.466,0,0,0-.647-.164,18.74,18.74,0,0,0-6.186,6.179Z" transform="translate(1.255 1.254)" fill="#fff"/>
      <path id="Trazado_8678" data-name="Trazado 8678" d="M10.445,27.208a.468.468,0,0,0-.631-.159l-2.425,1.4a.466.466,0,0,0-.164.647,18.741,18.741,0,0,0,6.166,6.173.463.463,0,0,0,.358.054.468.468,0,0,0,.289-.218l1.4-2.425a.468.468,0,0,0-.159-.631,15.009,15.009,0,0,1-4.837-4.845Z" transform="translate(1.257 5.882)" fill="#fff"/>
    </g>
  </g>
</svg>
