<svg xmlns="http://www.w3.org/2000/svg" width="68" height="68" viewBox="0 0 68 68">
  <g id="Grupo_18485" data-name="Grupo 18485" transform="translate(-140 -4258)">
    <rect id="Rectángulo_604" data-name="Rectángulo 604" width="68" height="68" rx="20" transform="translate(140 4258)" fill="#ff4365"/>
    <g id="_5fac2e3576598133f1fc184c_icon-spec-2-1-crypto-template" data-name="5fac2e3576598133f1fc184c_icon-spec-2-1-crypto-template" transform="translate(159.577 4276)">
      <path id="Trazado_8233" data-name="Trazado 8233" d="M14.352,32.443a1.269,1.269,0,0,1-.583-.14L7.927,29.279a13.711,13.711,0,0,1-3.967-2.946A13.371,13.371,0,0,1,.492,17.454L.424,6.69A2.941,2.941,0,0,1,2.416,3.913L13.142.173a3.053,3.053,0,0,1,2-.011L25.9,3.774a2.934,2.934,0,0,1,2.027,2.75L28,17.3a13.371,13.371,0,0,1-3.351,8.914A13.664,13.664,0,0,1,20.721,29.2l-5.789,3.092a1.24,1.24,0,0,1-.58.148" fill="#fff"/>
      <path id="Trazado_8234" data-name="Trazado 8234" d="M13.107,19.986a1.239,1.239,0,0,1-.869-.344l-3.109-2.99a1.171,1.171,0,0,1-.01-1.686,1.248,1.248,0,0,1,1.733-.011l2.237,2.151,5.463-5.386a1.248,1.248,0,0,1,1.733-.011,1.17,1.17,0,0,1,.011,1.686l-6.325,6.237a1.233,1.233,0,0,1-.864.355" fill="#a388ef"/>
    </g>
  </g>
</svg>
